<svg width="995" height="753" viewBox="0 0 995 753" fill="none" xmlns="http://www.w3.org/2000/svg">
    <path d="M910.477 107.735L848.731 65.5829L824.99 100.359L886.736 142.511L910.477 107.735Z" fill="white"/>
    <path d="M873.414 88.7491L851.299 73.6518L833.43 99.8274L855.545 114.925L873.414 88.7491Z" fill="#FAAD67"/>
    <path d="M901.348 107.818L879.232 92.7209L861.363 118.897L883.478 133.994L901.348 107.818Z" fill="#FAAD67"/>
    <path d="M908.999 157.761L970.745 199.913L994.485 165.137L932.739 122.985L908.999 157.761Z" fill="white"/>
    <path d="M946.051 176.74L968.166 191.837L986.035 165.662L963.92 150.564L946.051 176.74Z" fill="#FAAD67"/>
    <path d="M918.115 157.652L940.23 172.75L958.1 146.574L935.984 131.477L918.115 157.652Z" fill="#FAAD67"/>
    <path d="M934.83 154.454C928.208 164.141 914.021 158.735 898.982 148.467C883.943 138.199 873.747 126.951 880.35 117.263C886.972 107.576 907.889 103.095 922.929 113.363C937.968 123.631 941.433 144.748 934.812 154.435L934.83 154.454Z" fill="#343B97"/>
    <path d="M936.154 174.718C928.39 186.074 905.295 183.807 884.541 169.638C863.787 155.469 853.265 134.77 861.011 123.413C868.776 112.057 891.87 114.324 912.624 128.493C933.378 142.661 943.901 163.361 936.154 174.718Z" fill="white"/>
    <path d="M933.161 172.686C926.539 182.373 905.694 179.652 886.591 166.627C867.488 153.583 857.365 135.151 863.987 125.463C870.608 115.776 891.453 118.497 910.556 131.522C929.659 144.548 939.782 162.998 933.161 172.686Z" fill="#6066AE"/>
    <path d="M884.94 181.104C882.818 184.206 878.591 185.004 875.489 182.881C872.386 180.759 871.588 176.532 873.711 173.43C875.833 170.327 880.06 169.529 883.163 171.652C886.265 173.774 887.063 178.001 884.94 181.104Z" fill="#343B97"/>
    <path d="M878.246 176.55L896.66 146.888C897.476 145.564 899.236 145.147 900.56 145.981C901.885 146.816 902.302 148.557 901.467 149.882C901.431 149.954 901.377 150.027 901.322 150.081L880.387 178.038C879.951 178.618 879.135 178.727 878.573 178.292C878.028 177.892 877.901 177.131 878.246 176.568V176.55Z" fill="#343B97"/>
    <path d="M942.34 282.57C954.114 265.317 922.602 223.247 872.096 188.759C821.59 154.272 770.92 140.249 759.146 157.501C757.096 160.513 756.316 164.286 756.752 168.695C726.183 159.569 702.708 160.186 694.09 172.795C688.902 180.378 689.519 191.462 695.596 205.014C655.866 192.986 625.316 193.694 614.177 210.003C604.017 224.879 611.873 250.114 632.844 279.213C633.262 279.068 633.679 278.905 634.096 278.742C613.324 250.096 605.469 225.351 615.374 210.82C619.547 204.706 626.531 200.878 635.783 199.118C650.823 196.288 671.813 199.009 696.34 206.593C699.714 213.74 704.522 221.523 710.817 229.85C719.652 241.551 730.864 253.634 743.817 265.607C744.052 265.172 744.325 264.773 744.633 264.392C731.807 252.527 720.722 240.554 711.978 228.979C706.1 221.178 701.492 213.885 698.209 207.173C733.403 218.33 775.655 239.302 817.907 268.147C860.159 296.992 895.1 328.686 918.303 357.422C910.847 356.787 902.374 355.172 892.977 352.524C883.743 349.929 874.001 346.464 863.914 342.219C864.531 342.963 865.148 343.707 865.746 344.451C886.138 352.814 904.624 357.767 919.428 358.801C945.334 391.274 956.056 419.811 945.098 435.866C938.912 444.919 926.394 449.182 908.724 448.584C908.778 449.055 908.851 449.545 908.905 450.017C914.838 450.198 920.226 449.854 924.997 448.946C934.757 447.114 941.978 443.014 946.295 436.683C957.434 420.355 946.912 391.583 921.169 358.891C926.43 359.145 931.201 358.928 935.392 358.129C942.83 356.733 948.472 353.63 951.828 348.696C960.428 336.087 952.445 313.955 932.78 288.792C937.025 287.631 940.309 285.581 942.377 282.551L942.34 282.57ZM760.344 158.318C762.611 155.016 766.385 152.93 771.41 151.986C791.529 148.195 831.386 162.726 871.28 189.957C921.133 223.99 952.464 265.172 941.143 281.753C939.166 284.656 935.991 286.597 931.854 287.667C913.804 264.9 886.283 239.737 852.866 216.915C819.449 194.111 785.996 177.639 758.221 169.13C757.695 164.831 758.384 161.184 760.344 158.318ZM852.05 218.112C885.158 240.717 912.479 265.571 930.44 288.012C910.447 292.076 870.354 277.544 830.189 250.132C805.952 233.587 785.325 214.847 772.154 197.377C764.353 187.036 759.745 177.929 758.439 170.581C785.869 179.162 818.959 195.526 852.05 218.131V218.112ZM950.595 347.898C945.551 355.281 935.011 358.51 920.062 357.549C896.769 328.377 861.501 296.176 818.705 266.968C775.909 237.76 733.077 216.625 697.429 205.558C691.097 191.989 690.263 180.995 695.306 173.611C698.517 168.894 703.905 165.937 711.053 164.595C722.482 162.436 738.374 164.45 756.951 170.11C758.13 177.874 762.865 187.435 771.029 198.247C784.309 215.845 805.045 234.694 829.409 251.33C869.592 278.76 909.867 293.237 930.603 289.336C930.875 289.282 931.111 289.228 931.383 289.155C950.958 313.936 958.994 335.652 950.631 347.916L950.595 347.898Z" fill="white"/>
    <path d="M628.164 404.137C628.164 411.43 627.783 418.632 627.039 425.725C617.442 517.794 547.053 591.812 456.744 606.924C445.623 608.792 434.194 609.772 422.547 609.772C373.075 609.772 327.703 592.302 292.236 563.22C246.265 525.504 216.912 468.249 216.912 404.137C216.912 387.483 218.907 371.282 222.644 355.771C230.971 321.157 248.097 289.935 271.5 264.628C309.053 223.972 362.825 198.501 422.547 198.501C457.778 198.501 490.941 207.354 519.931 222.993C558.718 243.892 590.049 276.891 608.825 316.93C616.753 333.82 622.449 351.979 625.515 371.028C627.275 381.804 628.182 392.871 628.182 404.137H628.164Z" fill="#525DAA"/>
    <path d="M522.09 244.128C521.618 256.428 516.811 269.181 506.796 276.329C491.122 287.54 467.955 281.028 454.585 267.131C447.165 259.421 441.196 249.334 431.091 245.778C415.907 240.445 399.725 253.271 393.393 268.056C384.703 288.393 387.298 313.447 373.582 330.772C364.131 342.709 347.858 348.46 332.782 346.174C317.724 343.888 304.263 334.056 296.517 320.939C289.224 308.621 286.847 294.053 281.369 280.846C278.992 275.059 275.654 269.344 271.463 264.628C309.016 223.972 362.788 198.501 422.51 198.501C457.741 198.501 490.904 207.354 519.895 222.993C521.382 229.977 522.362 237.016 522.072 244.128H522.09Z" fill="#343B97"/>
    <path d="M292.09 427.957C294.485 416.854 304.064 407.638 315.257 405.679C334.415 402.322 354.715 418.341 372.44 410.305C385.719 404.282 390.291 387.737 400.94 377.795C416.433 363.318 443.99 366.91 457.415 383.328C470.858 399.728 470.187 425.108 458.268 442.651C448.38 457.201 432.506 466.362 419.789 478.499C411.898 486.028 405.131 494.79 396.386 501.303C387.642 507.834 376.086 511.934 365.782 508.378C353.282 504.079 346.969 490.654 339.966 479.442C326.559 458.017 284.997 460.738 292.09 427.938V427.957Z" fill="#343B97"/>
    <path d="M627.039 425.725C617.442 517.794 547.053 591.812 456.744 606.924C454.93 591.104 448.507 575.557 443.537 560.209C436.806 539.455 433.069 515.091 445.496 497.185C457.07 480.458 482.124 474.925 499.685 485.175C508.193 490.164 514.688 498.074 523.16 503.081C531.632 508.106 544.041 509.249 550.191 501.539C554.545 496.115 554.146 488.259 552.386 481.529C550.627 474.798 547.724 468.195 547.706 461.228C547.67 448.039 559.897 436.066 573.086 436.374C579.635 436.519 585.858 439.241 592.37 439.894C605.342 441.236 616.898 434.578 627.039 425.707V425.725Z" fill="#343B97"/>
    <path d="M543.769 354.719C542.009 347.662 542.771 339.516 547.688 334.183C552.132 329.357 558.99 327.724 565.412 326.327C579.871 323.207 594.312 320.05 608.789 316.93C616.716 333.82 622.413 351.979 625.479 371.028C613.378 379.301 599.808 385.197 585.204 384.78C566.881 384.235 548.196 372.498 543.751 354.719H543.769Z" fill="#343B97"/>
    <path d="M330.605 546.494C326.94 551.193 320.428 552.299 314.622 553.751C306.712 555.728 299.129 558.957 292.199 563.22C246.228 525.504 216.875 468.249 216.875 404.137C216.875 387.483 218.871 371.282 222.608 355.771C239.208 359.309 253.721 373.459 255.97 390.476C258.147 407.039 250.238 423.058 247.208 439.458C243.779 457.89 246.7 477.429 255.354 494.046C260.85 504.641 269.286 514.51 280.679 518.066C288.135 520.406 296.136 519.862 303.955 519.953C311.774 520.062 320.047 521.041 326.233 525.831C332.401 530.602 335.376 540.308 330.569 546.476L330.605 546.494Z" fill="#343B97"/>
    <path d="M422.764 713.741C421.567 713.741 420.388 713.741 419.191 713.741C418.791 713.741 418.465 713.415 418.483 713.016C418.483 712.617 418.81 712.308 419.209 712.308C420.388 712.308 421.585 712.326 422.764 712.308C424.814 712.308 426.864 712.29 428.896 712.236C429.295 712.236 429.604 712.544 429.622 712.943C429.622 713.342 429.314 713.669 428.914 713.687C426.864 713.723 424.814 713.76 422.764 713.76V713.741ZM403.698 713.179H403.661C400.432 712.98 397.167 712.744 393.956 712.435C393.556 712.399 393.266 712.054 393.302 711.655C393.339 711.256 393.683 710.966 394.083 711.002C397.275 711.292 400.523 711.546 403.734 711.728C404.133 711.746 404.441 712.091 404.405 712.49C404.387 712.871 404.06 713.161 403.679 713.161L403.698 713.179ZM444.407 712.98C444.026 712.98 443.718 712.689 443.682 712.308C443.645 711.909 443.954 711.564 444.353 711.528C447.582 711.292 450.83 711.02 453.986 710.694C454.367 710.676 454.748 710.948 454.784 711.347C454.821 711.746 454.53 712.109 454.131 712.145C450.956 712.472 447.691 712.744 444.444 712.98C444.444 712.98 444.407 712.98 444.389 712.98H444.407ZM378.626 710.657C378.626 710.657 378.553 710.657 378.517 710.657C375.306 710.204 372.077 709.696 368.92 709.134C368.521 709.061 368.267 708.698 368.34 708.299C368.412 707.9 368.793 707.646 369.174 707.718C372.331 708.263 375.542 708.771 378.735 709.242C379.134 709.297 379.406 709.66 379.352 710.059C379.297 710.422 378.989 710.676 378.644 710.676L378.626 710.657ZM469.461 710.186C469.116 710.186 468.808 709.932 468.753 709.569C468.699 709.17 468.971 708.807 469.352 708.752C470.84 708.535 472.327 708.281 473.815 708.045C475.52 707.755 477.207 707.464 478.895 707.156C479.294 707.083 479.657 707.337 479.747 707.737C479.82 708.136 479.566 708.499 479.167 708.589C477.461 708.898 475.756 709.206 474.051 709.496C472.563 709.75 471.076 709.986 469.57 710.222C469.534 710.222 469.497 710.222 469.461 710.222V710.186ZM353.844 706.086C353.844 706.086 353.736 706.086 353.681 706.068C350.543 705.36 347.368 704.58 344.229 703.764C343.848 703.655 343.613 703.274 343.703 702.875C343.812 702.494 344.193 702.258 344.592 702.348C347.713 703.165 350.869 703.927 353.99 704.634C354.371 704.725 354.624 705.106 354.534 705.505C354.461 705.832 354.153 706.068 353.826 706.068L353.844 706.086ZM494.188 705.378C493.861 705.378 493.571 705.16 493.48 704.816C493.39 704.417 493.626 704.036 494.025 703.945C497.109 703.219 500.265 702.403 503.404 701.568C503.803 701.46 504.184 701.695 504.293 702.076C504.402 702.457 504.166 702.856 503.785 702.965C500.646 703.818 497.472 704.616 494.369 705.36C494.315 705.36 494.261 705.378 494.206 705.378H494.188ZM329.498 699.5C329.498 699.5 329.353 699.5 329.281 699.464C326.178 698.484 323.076 697.45 320.065 696.398C319.684 696.271 319.484 695.854 319.629 695.473C319.756 695.092 320.174 694.892 320.555 695.037C323.566 696.09 326.65 697.124 329.734 698.103C330.115 698.23 330.333 698.629 330.206 699.01C330.115 699.319 329.825 699.518 329.516 699.518L329.498 699.5ZM518.425 698.557C518.117 698.557 517.845 698.357 517.736 698.049C517.609 697.668 517.826 697.269 518.207 697.142C521.255 696.144 524.321 695.092 527.333 694.003C527.714 693.858 528.131 694.058 528.258 694.439C528.385 694.82 528.204 695.237 527.823 695.364C524.811 696.452 521.727 697.505 518.661 698.521C518.588 698.539 518.516 698.557 518.443 698.557H518.425ZM305.787 690.919C305.697 690.919 305.606 690.919 305.515 690.865C302.504 689.631 299.492 688.343 296.571 687.037C296.208 686.874 296.045 686.438 296.208 686.075C296.372 685.713 296.807 685.549 297.17 685.713C300.073 687.019 303.066 688.289 306.059 689.522C306.422 689.668 306.604 690.103 306.458 690.466C306.35 690.738 306.078 690.919 305.787 690.919ZM541.991 689.776C541.701 689.776 541.447 689.613 541.32 689.341C541.157 688.978 541.338 688.543 541.701 688.398C544.658 687.164 547.633 685.858 550.536 684.515C550.899 684.352 551.334 684.515 551.497 684.878C551.661 685.241 551.497 685.676 551.135 685.84C548.214 687.182 545.22 688.488 542.263 689.74C542.173 689.776 542.082 689.795 541.991 689.795V689.776ZM282.856 680.433C282.747 680.433 282.639 680.415 282.53 680.361C279.645 678.891 276.743 677.368 273.931 675.825C273.586 675.626 273.459 675.191 273.64 674.846C273.84 674.501 274.275 674.374 274.62 674.556C277.432 676.098 280.298 677.621 283.183 679.073C283.546 679.254 283.673 679.69 283.491 680.052C283.364 680.306 283.11 680.452 282.838 680.452L282.856 680.433ZM564.759 679.091C564.505 679.091 564.251 678.946 564.124 678.692C563.942 678.329 564.088 677.894 564.432 677.712C567.299 676.225 570.165 674.683 572.923 673.122C573.267 672.923 573.721 673.05 573.902 673.395C574.102 673.739 573.975 674.193 573.63 674.374C570.854 675.934 567.97 677.476 565.085 678.982C564.977 679.037 564.868 679.055 564.759 679.055V679.091ZM260.869 668.115C260.742 668.115 260.615 668.079 260.488 668.006C257.73 666.301 254.973 664.56 252.288 662.782C251.961 662.564 251.87 662.11 252.088 661.784C252.306 661.457 252.759 661.367 253.086 661.584C255.753 663.344 258.492 665.086 261.25 666.791C261.594 667.009 261.703 667.444 261.485 667.789C261.34 668.006 261.104 668.133 260.869 668.133V668.115ZM586.601 666.591C586.366 666.591 586.13 666.464 585.985 666.247C585.767 665.902 585.876 665.467 586.22 665.249C588.942 663.544 591.663 661.766 594.312 659.988C594.638 659.77 595.092 659.843 595.309 660.187C595.527 660.514 595.436 660.967 595.11 661.185C592.443 662.981 589.704 664.759 586.982 666.483C586.855 666.555 586.728 666.591 586.601 666.591ZM239.969 654.037C239.824 654.037 239.679 654.001 239.534 653.892C236.922 651.987 234.327 650.01 231.788 648.014C231.479 647.779 231.425 647.307 231.661 646.998C231.915 646.69 232.368 646.636 232.677 646.871C235.198 648.849 237.792 650.808 240.387 652.713C240.713 652.949 240.786 653.402 240.55 653.729C240.405 653.929 240.187 654.019 239.969 654.019V654.037ZM607.355 652.332C607.138 652.332 606.92 652.223 606.775 652.042C606.539 651.715 606.593 651.262 606.92 651.026C609.478 649.121 612.054 647.125 614.576 645.112C614.884 644.858 615.338 644.912 615.592 645.221C615.846 645.529 615.791 645.983 615.483 646.236C612.961 648.25 610.367 650.246 607.809 652.169C607.682 652.259 607.519 652.314 607.374 652.314L607.355 652.332ZM220.268 638.309C220.104 638.309 219.923 638.254 219.796 638.127C217.365 636.023 214.916 633.828 212.557 631.651C212.267 631.379 212.249 630.925 212.521 630.635C212.793 630.344 213.247 630.326 213.537 630.598C215.896 632.775 218.327 634.952 220.739 637.057C221.048 637.311 221.066 637.783 220.812 638.073C220.667 638.236 220.467 638.327 220.268 638.327V638.309ZM626.894 636.44C626.694 636.44 626.495 636.349 626.35 636.186C626.078 635.878 626.114 635.424 626.422 635.17C628.799 633.066 631.212 630.871 633.57 628.657C633.86 628.385 634.314 628.403 634.586 628.694C634.858 628.984 634.84 629.437 634.55 629.709C632.173 631.941 629.76 634.136 627.366 636.259C627.221 636.386 627.057 636.44 626.894 636.44ZM201.926 621.038C201.745 621.038 201.546 620.965 201.419 620.82C199.151 618.516 196.901 616.14 194.724 613.781C194.452 613.491 194.47 613.037 194.761 612.765C195.051 612.493 195.504 612.511 195.776 612.801C197.953 615.16 200.185 617.518 202.434 619.804C202.707 620.094 202.707 620.548 202.434 620.82C202.289 620.965 202.108 621.02 201.926 621.02V621.038ZM645.09 619.006C644.909 619.006 644.727 618.933 644.582 618.806C644.292 618.534 644.292 618.063 644.564 617.79C646.795 615.468 649.027 613.092 651.167 610.715C651.44 610.425 651.893 610.389 652.183 610.661C652.474 610.933 652.51 611.386 652.238 611.677C650.079 614.053 647.848 616.448 645.616 618.788C645.471 618.933 645.29 619.006 645.09 619.006ZM185.037 602.334C184.837 602.334 184.619 602.243 184.474 602.08C182.406 599.594 180.356 597.055 178.379 594.515C178.125 594.206 178.197 593.753 178.506 593.499C178.814 593.263 179.268 593.317 179.522 593.626C181.499 596.147 183.531 598.687 185.599 601.155C185.853 601.463 185.817 601.917 185.508 602.17C185.381 602.279 185.218 602.334 185.055 602.334H185.037ZM661.817 600.157C661.653 600.157 661.49 600.102 661.363 599.994C661.055 599.74 661 599.286 661.254 598.978C663.286 596.474 665.318 593.934 667.259 591.394C667.513 591.086 667.967 591.013 668.275 591.267C668.583 591.503 668.656 591.957 668.402 592.283C666.443 594.841 664.411 597.399 662.361 599.903C662.216 600.084 662.016 600.175 661.798 600.175L661.817 600.157ZM169.725 582.342C169.489 582.342 169.272 582.233 169.126 582.033C167.258 579.385 165.426 576.682 163.666 573.997C163.448 573.67 163.539 573.216 163.865 572.999C164.192 572.781 164.645 572.872 164.863 573.198C166.605 575.865 168.437 578.55 170.306 581.199C170.541 581.525 170.451 581.979 170.124 582.215C169.997 582.305 169.852 582.342 169.707 582.342H169.725ZM676.965 580.001C676.82 580.001 676.675 579.965 676.548 579.874C676.221 579.639 676.13 579.203 676.366 578.877C678.18 576.246 679.994 573.543 681.736 570.822C681.954 570.477 682.407 570.386 682.734 570.604C683.06 570.822 683.169 571.275 682.952 571.602C681.192 574.323 679.378 577.044 677.563 579.693C677.418 579.893 677.201 580.001 676.965 580.001ZM156.083 561.152C155.829 561.152 155.593 561.025 155.466 560.789C153.833 558.014 152.218 555.166 150.676 552.335C150.477 551.991 150.622 551.537 150.967 551.356C151.33 551.156 151.765 551.301 151.946 551.646C153.488 554.458 155.085 557.288 156.718 560.046C156.917 560.39 156.808 560.826 156.464 561.043C156.355 561.116 156.228 561.152 156.101 561.152H156.083ZM690.426 558.667C690.299 558.667 690.172 558.631 690.063 558.576C689.718 558.377 689.591 557.941 689.791 557.578C691.387 554.821 692.966 551.973 694.49 549.106C694.671 548.762 695.106 548.616 695.469 548.816C695.814 548.997 695.959 549.451 695.76 549.796C694.236 552.662 692.639 555.528 691.043 558.304C690.916 558.54 690.662 558.667 690.408 558.667H690.426ZM144.218 538.929C143.946 538.929 143.692 538.784 143.565 538.512C142.168 535.627 140.789 532.652 139.483 529.695C139.32 529.332 139.483 528.897 139.846 528.733C140.209 528.57 140.644 528.733 140.807 529.096C142.114 532.035 143.474 534.992 144.871 537.858C145.053 538.221 144.889 538.657 144.526 538.82C144.418 538.874 144.327 538.893 144.218 538.893V538.929ZM702.109 536.316C702 536.316 701.891 536.298 701.801 536.244C701.438 536.081 701.293 535.645 701.456 535.282C702.835 532.362 704.177 529.386 705.447 526.447C705.61 526.085 706.028 525.903 706.391 526.066C706.753 526.23 706.917 526.647 706.771 527.01C705.502 529.949 704.141 532.942 702.762 535.881C702.635 536.135 702.381 536.298 702.109 536.298V536.316ZM134.204 515.816C133.914 515.816 133.641 515.635 133.533 515.345C132.372 512.351 131.247 509.285 130.195 506.238C130.068 505.857 130.267 505.439 130.648 505.312C131.011 505.185 131.446 505.385 131.573 505.766C132.625 508.796 133.75 511.843 134.911 514.837C135.056 515.218 134.875 515.635 134.494 515.78C134.403 515.816 134.313 515.835 134.24 515.835L134.204 515.816ZM711.906 513.059C711.906 513.059 711.742 513.059 711.652 513.023C711.271 512.877 711.089 512.46 711.234 512.097C712.359 509.086 713.448 506.02 714.482 502.972C714.609 502.591 715.026 502.392 715.407 502.519C715.788 502.646 715.987 503.063 715.86 503.444C714.826 506.51 713.72 509.594 712.595 512.623C712.486 512.914 712.214 513.095 711.924 513.095L711.906 513.059ZM126.113 491.96C125.804 491.96 125.514 491.761 125.423 491.434C124.516 488.332 123.645 485.175 122.847 482.091C122.738 481.71 122.974 481.311 123.373 481.202C123.754 481.093 124.153 481.329 124.262 481.728C125.06 484.812 125.931 487.951 126.838 491.035C126.947 491.416 126.729 491.815 126.348 491.924C126.276 491.942 126.203 491.96 126.149 491.96H126.113ZM719.761 489.057C719.761 489.057 719.634 489.058 719.561 489.021C719.18 488.912 718.963 488.513 719.072 488.132C719.942 485.03 720.795 481.892 721.557 478.753C721.648 478.372 722.047 478.136 722.428 478.227C722.809 478.318 723.045 478.717 722.954 479.098C722.174 482.236 721.321 485.411 720.45 488.513C720.36 488.84 720.069 489.039 719.761 489.039V489.057ZM120.017 467.523C119.691 467.523 119.382 467.288 119.31 466.943C118.656 463.786 118.058 460.575 117.495 457.419C117.423 457.019 117.695 456.657 118.094 456.584C118.493 456.511 118.856 456.784 118.929 457.165C119.473 460.321 120.09 463.496 120.725 466.653C120.797 467.052 120.561 467.433 120.162 467.505C120.108 467.505 120.071 467.505 120.017 467.505V467.523ZM725.621 464.53C725.621 464.53 725.53 464.53 725.476 464.53C725.076 464.457 724.822 464.076 724.913 463.677C725.53 460.557 726.11 457.346 726.618 454.153C726.691 453.754 727.036 453.5 727.453 453.554C727.852 453.627 728.106 453.99 728.052 454.389C727.525 457.6 726.945 460.811 726.328 463.95C726.256 464.294 725.965 464.53 725.621 464.53ZM115.935 442.688C115.572 442.688 115.264 442.415 115.21 442.053C114.81 438.86 114.466 435.612 114.175 432.383C114.139 431.984 114.429 431.639 114.829 431.603C115.21 431.53 115.572 431.857 115.609 432.256C115.899 435.467 116.244 438.696 116.625 441.871C116.679 442.27 116.389 442.633 115.99 442.669C115.953 442.669 115.935 442.669 115.899 442.669L115.935 442.688ZM729.449 439.622C729.449 439.622 729.394 439.622 729.376 439.622C728.977 439.567 728.687 439.223 728.741 438.823C728.832 438.025 728.922 437.227 728.995 436.429C729.249 434.016 729.467 431.621 729.666 429.19C729.702 428.791 730.011 428.501 730.446 428.519C730.845 428.555 731.136 428.9 731.118 429.299C730.918 431.73 730.7 434.161 730.446 436.574C730.356 437.372 730.283 438.17 730.192 438.987C730.156 439.349 729.83 439.622 729.467 439.622H729.449ZM113.903 417.58C113.522 417.58 113.196 417.271 113.178 416.89C113.051 413.679 112.96 410.414 112.924 407.184C112.924 406.785 113.232 406.459 113.631 406.459C114.03 406.459 114.357 406.785 114.357 407.166C114.393 410.377 114.466 413.625 114.593 416.818C114.593 417.217 114.302 417.561 113.903 417.58H113.867H113.903ZM731.263 414.495H731.244C730.845 414.495 730.537 414.151 730.537 413.752C730.646 410.541 730.682 407.275 730.682 404.082V403.719C730.682 403.32 731.009 402.994 731.408 402.994C731.807 402.994 732.133 403.32 732.133 403.719V404.082C732.133 407.293 732.079 410.559 731.988 413.806C731.988 414.205 731.662 414.514 731.263 414.514V414.495ZM113.903 392.399C113.903 392.399 113.885 392.399 113.867 392.399C113.468 392.399 113.16 392.054 113.178 391.655C113.305 388.426 113.486 385.16 113.704 381.949C113.74 381.55 114.085 381.242 114.484 381.278C114.883 381.314 115.191 381.659 115.155 382.058C114.937 385.251 114.756 388.499 114.629 391.71C114.629 392.109 114.302 392.399 113.903 392.399ZM731.009 388.934C730.628 388.934 730.301 388.626 730.283 388.245C730.12 385.052 729.902 381.804 729.648 378.593C729.612 378.194 729.92 377.849 730.319 377.813C730.718 377.777 731.063 378.085 731.099 378.466C731.372 381.695 731.571 384.943 731.752 388.154C731.771 388.553 731.462 388.898 731.063 388.916C731.063 388.916 731.045 388.916 731.027 388.916L731.009 388.934ZM115.917 367.273C115.917 367.273 115.863 367.273 115.826 367.273C115.427 367.218 115.155 366.874 115.191 366.475C115.572 363.264 116.026 360.034 116.516 356.841C116.57 356.442 116.951 356.17 117.332 356.243C117.731 356.297 118.003 356.678 117.931 357.059C117.441 360.234 117.006 363.445 116.606 366.638C116.57 367.001 116.244 367.273 115.881 367.273H115.917ZM728.705 363.844C728.342 363.844 728.033 363.572 727.979 363.209C727.598 360.288 727.163 357.349 726.691 354.447L726.564 353.703C726.491 353.304 726.764 352.905 727.163 352.85C727.544 352.778 727.925 353.032 727.979 353.413V353.467L728.106 354.211C728.578 357.114 729.013 360.071 729.412 363.01C729.467 363.409 729.195 363.772 728.795 363.826C728.759 363.826 728.723 363.826 728.705 363.826V363.844ZM119.963 342.401C119.963 342.401 119.872 342.401 119.818 342.401C119.418 342.328 119.183 341.947 119.255 341.548C119.908 338.373 120.616 335.18 121.36 332.06C121.45 331.679 121.831 331.425 122.23 331.516C122.611 331.606 122.865 332.006 122.775 332.386C122.031 335.507 121.323 338.682 120.688 341.82C120.616 342.165 120.325 342.401 119.981 342.401H119.963ZM724.387 339.008C724.06 339.008 723.752 338.772 723.679 338.446C722.99 335.289 722.246 332.114 721.484 329.03C721.394 328.649 721.629 328.25 722.01 328.16C722.391 328.069 722.791 328.305 722.881 328.686C723.661 331.788 724.405 334.981 725.095 338.156C725.185 338.555 724.931 338.936 724.532 339.008C724.478 339.008 724.423 339.008 724.387 339.008ZM126.04 317.928C126.04 317.928 125.913 317.928 125.841 317.891C125.46 317.782 125.242 317.383 125.351 317.002C126.258 313.9 127.219 310.78 128.217 307.714C128.344 307.333 128.743 307.133 129.124 307.242C129.505 307.369 129.705 307.768 129.578 308.149C128.58 311.197 127.618 314.299 126.711 317.383C126.621 317.692 126.33 317.909 126.022 317.909L126.04 317.928ZM718.056 314.608C717.747 314.608 717.457 314.408 717.366 314.1C716.423 311.016 715.425 307.932 714.391 304.902C714.264 304.521 714.464 304.104 714.845 303.977C715.226 303.85 715.643 304.049 715.77 304.43C716.804 307.478 717.802 310.58 718.745 313.683C718.854 314.063 718.654 314.463 718.273 314.59C718.201 314.608 718.128 314.626 718.056 314.626V314.608ZM134.095 294.035C134.095 294.035 133.914 294.035 133.841 293.981C133.46 293.836 133.279 293.418 133.424 293.037C134.567 290.044 135.8 287.014 137.052 284.021C137.215 283.658 137.633 283.477 137.995 283.64C138.358 283.803 138.54 284.22 138.376 284.583C137.125 287.559 135.909 290.57 134.766 293.563C134.657 293.854 134.385 294.035 134.095 294.035ZM709.71 290.824C709.42 290.824 709.148 290.643 709.039 290.371C707.86 287.395 706.608 284.402 705.32 281.445C705.157 281.082 705.32 280.647 705.701 280.501C706.064 280.338 706.499 280.501 706.644 280.882C707.933 283.858 709.184 286.869 710.382 289.863C710.527 290.225 710.345 290.661 709.983 290.806C709.892 290.842 709.801 290.86 709.71 290.86V290.824ZM144.073 270.905C143.964 270.905 143.855 270.886 143.764 270.832C143.402 270.651 143.256 270.233 143.42 269.87C144.817 266.986 146.286 264.065 147.774 261.181C147.955 260.818 148.391 260.691 148.753 260.872C149.116 261.054 149.243 261.489 149.062 261.852C147.574 264.718 146.105 267.621 144.726 270.487C144.599 270.741 144.345 270.905 144.073 270.905ZM699.442 267.802C699.17 267.802 698.916 267.657 698.789 267.403C697.356 264.519 695.868 261.616 694.363 258.804C694.181 258.459 694.308 258.006 694.653 257.824C694.998 257.643 695.451 257.77 695.633 258.115C697.138 260.945 698.644 263.847 700.077 266.75C700.259 267.113 700.114 267.548 699.751 267.712C699.642 267.766 699.533 267.784 699.424 267.784L699.442 267.802ZM155.937 248.663C155.81 248.663 155.683 248.627 155.575 248.554C155.23 248.355 155.121 247.901 155.321 247.556C156.953 244.781 158.659 241.987 160.364 239.266C160.582 238.921 161.017 238.83 161.362 239.03C161.707 239.247 161.797 239.683 161.58 240.028C159.874 242.731 158.169 245.524 156.554 248.282C156.427 248.518 156.173 248.645 155.937 248.645V248.663ZM687.342 245.706C687.088 245.706 686.852 245.579 686.725 245.361C685.056 242.604 683.333 239.828 681.609 237.161C681.391 236.835 681.482 236.381 681.827 236.163C682.153 235.946 682.607 236.036 682.825 236.381C684.566 239.066 686.29 241.842 687.959 244.617C688.158 244.962 688.049 245.397 687.705 245.615C687.596 245.688 687.469 245.724 687.324 245.724L687.342 245.706ZM169.562 227.474C169.417 227.474 169.272 227.437 169.145 227.347C168.818 227.111 168.745 226.657 168.963 226.331C170.814 223.7 172.737 221.051 174.678 218.475C174.914 218.149 175.367 218.094 175.694 218.33C176.02 218.566 176.075 219.02 175.839 219.346C173.916 221.922 171.993 224.553 170.161 227.165C170.015 227.365 169.798 227.474 169.562 227.474ZM673.482 224.662C673.264 224.662 673.028 224.553 672.901 224.353C671.033 221.759 669.091 219.147 667.132 216.589C666.896 216.262 666.951 215.808 667.259 215.573C667.567 215.337 668.021 215.391 668.275 215.7C670.252 218.276 672.194 220.888 674.062 223.5C674.298 223.827 674.225 224.281 673.899 224.516C673.772 224.607 673.627 224.643 673.482 224.643V224.662ZM184.873 207.463C184.71 207.463 184.547 207.409 184.42 207.3C184.111 207.046 184.075 206.593 184.329 206.284C186.397 203.799 188.52 201.331 190.661 198.919C190.933 198.61 191.386 198.592 191.676 198.864C191.985 199.136 192.003 199.59 191.731 199.88C189.608 202.275 187.486 204.76 185.436 207.209C185.291 207.391 185.091 207.463 184.873 207.463ZM657.952 204.833C657.753 204.833 657.553 204.742 657.408 204.579C655.322 202.13 653.163 199.681 651.022 197.304C650.75 197.014 650.786 196.542 651.077 196.288C651.367 196.016 651.839 196.052 652.093 196.343C654.252 198.719 656.41 201.168 658.497 203.654C658.751 203.962 658.714 204.416 658.424 204.67C658.297 204.778 658.116 204.851 657.952 204.851V204.833ZM201.763 188.759C201.582 188.759 201.4 188.687 201.255 188.56C200.965 188.288 200.965 187.816 201.255 187.544C203.523 185.222 205.845 182.918 208.149 180.704C208.439 180.432 208.893 180.432 209.165 180.723C209.437 181.013 209.437 181.466 209.147 181.738C206.843 183.952 204.539 186.238 202.271 188.542C202.126 188.687 201.945 188.759 201.763 188.759ZM640.863 186.31C640.682 186.31 640.5 186.238 640.355 186.092C638.069 183.807 635.729 181.557 633.407 179.362C633.117 179.09 633.098 178.636 633.371 178.346C633.643 178.056 634.096 178.038 634.386 178.31C636.727 180.505 639.067 182.773 641.371 185.077C641.661 185.367 641.661 185.82 641.371 186.092C641.226 186.238 641.044 186.31 640.863 186.31ZM220.086 171.47C219.887 171.47 219.687 171.38 219.542 171.216C219.288 170.908 219.306 170.454 219.615 170.2C222.046 168.078 224.549 165.973 227.053 163.942C227.361 163.688 227.815 163.742 228.069 164.05C228.323 164.359 228.268 164.812 227.96 165.066C225.474 167.08 222.989 169.184 220.558 171.289C220.413 171.416 220.25 171.47 220.086 171.47ZM622.322 169.239C622.159 169.239 621.996 169.184 621.851 169.076C619.401 166.989 616.88 164.939 614.376 162.926C614.068 162.672 614.013 162.218 614.267 161.91C614.521 161.601 614.975 161.547 615.283 161.801C617.805 163.815 620.327 165.883 622.794 167.969C623.102 168.223 623.139 168.677 622.885 168.985C622.74 169.148 622.54 169.239 622.34 169.239H622.322ZM239.752 155.742C239.534 155.742 239.316 155.633 239.171 155.451C238.935 155.125 239.008 154.671 239.334 154.435C241.929 152.53 244.596 150.626 247.244 148.811C247.571 148.594 248.024 148.666 248.242 148.993C248.46 149.319 248.387 149.773 248.061 149.991C245.412 151.805 242.763 153.692 240.187 155.596C240.06 155.687 239.915 155.742 239.752 155.742ZM602.457 153.728C602.312 153.728 602.167 153.692 602.04 153.601C599.428 151.732 596.761 149.882 594.094 148.086C593.767 147.868 593.677 147.415 593.894 147.088C594.112 146.761 594.566 146.671 594.892 146.888C597.577 148.684 600.262 150.553 602.874 152.44C603.201 152.676 603.274 153.129 603.038 153.456C602.893 153.655 602.675 153.764 602.457 153.764V153.728ZM260.633 141.664C260.397 141.664 260.161 141.537 260.016 141.319C259.798 140.974 259.907 140.539 260.252 140.321C263.009 138.634 265.803 136.947 268.597 135.35C268.942 135.151 269.377 135.278 269.577 135.623C269.776 135.967 269.649 136.403 269.304 136.602C266.529 138.199 263.735 139.849 260.996 141.555C260.869 141.627 260.742 141.664 260.615 141.664H260.633ZM581.413 139.886C581.286 139.886 581.159 139.85 581.032 139.777C578.274 138.126 575.462 136.493 572.669 134.933C572.324 134.734 572.197 134.298 572.396 133.953C572.596 133.609 573.031 133.482 573.376 133.681C576.188 135.26 579.018 136.892 581.794 138.561C582.139 138.761 582.247 139.215 582.048 139.559C581.921 139.777 581.667 139.904 581.431 139.904L581.413 139.886ZM282.602 129.327C282.33 129.327 282.076 129.182 281.949 128.928C281.768 128.565 281.913 128.13 282.258 127.949C285.142 126.479 288.063 125.046 290.984 123.685C291.347 123.522 291.782 123.685 291.945 124.03C292.108 124.393 291.945 124.828 291.601 124.992C288.698 126.352 285.795 127.785 282.911 129.237C282.802 129.291 282.693 129.309 282.584 129.309L282.602 129.327ZM559.298 127.785C559.189 127.785 559.081 127.767 558.972 127.713C556.087 126.28 553.148 124.883 550.246 123.558C549.883 123.395 549.719 122.96 549.883 122.597C550.046 122.234 550.481 122.071 550.844 122.234C553.765 123.558 556.722 124.973 559.625 126.407C559.988 126.588 560.133 127.023 559.951 127.368C559.824 127.622 559.57 127.767 559.298 127.767V127.785ZM305.497 118.823C305.207 118.823 304.935 118.66 304.826 118.37C304.681 118.007 304.844 117.572 305.225 117.426C308.2 116.211 311.248 115.014 314.259 113.889C314.64 113.744 315.058 113.943 315.185 114.306C315.33 114.687 315.13 115.104 314.767 115.231C311.774 116.356 308.744 117.535 305.769 118.751C305.678 118.787 305.588 118.805 305.497 118.805V118.823ZM536.277 117.535C536.277 117.535 536.095 117.535 536.004 117.481C533.011 116.302 529.981 115.141 526.952 114.052C526.571 113.925 526.389 113.508 526.516 113.127C526.643 112.746 527.061 112.546 527.442 112.691C530.471 113.78 533.537 114.941 536.531 116.138C536.911 116.284 537.093 116.701 536.93 117.082C536.821 117.372 536.549 117.535 536.258 117.535H536.277ZM329.172 110.242C328.863 110.242 328.573 110.043 328.482 109.734C328.355 109.353 328.573 108.954 328.954 108.827C332.02 107.866 335.14 106.922 338.243 106.052C338.642 105.943 339.023 106.161 339.132 106.56C339.24 106.941 339.023 107.34 338.624 107.449C335.54 108.319 332.419 109.245 329.371 110.224C329.299 110.242 329.226 110.261 329.154 110.261L329.172 110.242ZM512.475 109.208C512.475 109.208 512.33 109.208 512.257 109.172C509.173 108.229 506.034 107.34 502.969 106.505C502.588 106.396 502.352 105.997 502.461 105.616C502.569 105.235 502.969 104.999 503.349 105.108C506.452 105.943 509.59 106.85 512.692 107.793C513.073 107.902 513.291 108.319 513.164 108.7C513.073 109.009 512.783 109.208 512.475 109.208ZM353.463 103.639C353.137 103.639 352.828 103.403 352.756 103.076C352.665 102.677 352.919 102.296 353.3 102.206C356.457 101.48 359.65 100.809 362.788 100.192C363.169 100.119 363.568 100.373 363.641 100.772C363.713 101.172 363.459 101.553 363.06 101.625C359.922 102.242 356.747 102.913 353.609 103.621C353.554 103.621 353.5 103.621 353.445 103.621L353.463 103.639ZM488.074 102.877C488.074 102.877 487.965 102.877 487.929 102.877C484.772 102.187 481.598 101.553 478.441 100.972C478.042 100.899 477.788 100.518 477.861 100.137C477.933 99.7384 478.314 99.4844 478.695 99.557C481.852 100.137 485.063 100.772 488.219 101.462C488.6 101.553 488.854 101.934 488.782 102.314C488.709 102.659 488.401 102.877 488.074 102.877ZM378.209 99.049C377.846 99.049 377.537 98.795 377.501 98.4322C377.447 98.0331 377.719 97.6702 378.118 97.6158C381.293 97.1623 384.522 96.745 387.733 96.3822C388.132 96.3459 388.495 96.618 388.531 97.0171C388.567 97.4162 388.295 97.7791 387.896 97.8154C384.703 98.1782 381.474 98.5773 378.317 99.0309C378.281 99.0309 378.245 99.0309 378.209 99.0309V99.049ZM463.238 98.5773C463.238 98.5773 463.184 98.5773 463.148 98.5773C459.973 98.1601 456.744 97.7791 453.533 97.4707C453.133 97.4344 452.843 97.0716 452.88 96.6724C452.916 96.2733 453.242 95.9831 453.678 96.0193C456.889 96.3459 460.136 96.7269 463.329 97.1441C463.728 97.1985 464 97.5614 463.946 97.9605C463.891 98.3233 463.583 98.5955 463.22 98.5955L463.238 98.5773ZM403.244 96.491C402.863 96.491 402.555 96.2008 402.518 95.8198C402.5 95.4207 402.791 95.076 403.19 95.0578C406.401 94.8583 409.666 94.7131 412.895 94.6224C413.331 94.6224 413.621 94.9308 413.639 95.33C413.639 95.7291 413.331 96.0556 412.932 96.0738C409.721 96.1645 406.473 96.3278 403.28 96.5092H403.244V96.491ZM438.13 96.2915C438.13 96.2915 438.112 96.2915 438.094 96.2915C434.901 96.1282 431.654 96.0193 428.425 95.9649C428.025 95.9649 427.699 95.6202 427.717 95.2211C427.717 94.822 428.098 94.5499 428.461 94.5136C431.69 94.568 434.956 94.695 438.167 94.8401C438.566 94.8583 438.874 95.203 438.856 95.6021C438.838 95.9831 438.511 96.2915 438.13 96.2915Z" fill="#343B97"/>
    <path d="M146.413 266.315C146.304 266.315 146.177 266.297 146.087 266.224C145.724 266.043 145.597 265.607 145.778 265.244C146.54 263.793 147.411 262.396 148.409 261.072C148.645 260.745 149.098 260.691 149.425 260.927C149.751 261.163 149.806 261.616 149.57 261.943C148.626 263.194 147.792 264.537 147.066 265.916C146.939 266.17 146.685 266.297 146.431 266.297L146.413 266.315Z" fill="#343B97"/>
    <path d="M697.429 532.017C697.066 532.017 696.757 531.745 696.703 531.382C696.376 528.425 695.723 525.286 694.78 522.057C694.671 521.676 694.889 521.277 695.27 521.15C695.651 521.041 696.05 521.259 696.177 521.64C697.138 524.942 697.81 528.171 698.154 531.201C698.191 531.6 697.918 531.962 697.519 531.999C697.483 531.999 697.465 531.999 697.447 531.999L697.429 532.017ZM689.737 508.251C689.464 508.251 689.21 508.106 689.083 507.852C687.723 505.131 686.163 502.301 684.439 499.435C684.24 499.09 684.349 498.654 684.693 498.437C685.038 498.237 685.473 498.346 685.691 498.691C687.433 501.593 689.011 504.46 690.39 507.199C690.571 507.562 690.426 507.997 690.063 508.161C689.954 508.215 689.845 508.233 689.737 508.233V508.251ZM676.493 486.917C676.275 486.917 676.058 486.808 675.913 486.627C674.08 484.105 672.103 481.529 670.053 478.971C669.799 478.662 669.853 478.209 670.162 477.955C670.47 477.701 670.924 477.755 671.178 478.064C673.246 480.64 675.223 483.234 677.074 485.774C677.31 486.1 677.237 486.554 676.91 486.79C676.783 486.881 676.638 486.935 676.475 486.935L676.493 486.917ZM660.601 467.433C660.402 467.433 660.202 467.36 660.057 467.197C657.952 464.838 655.739 462.462 653.508 460.104C653.236 459.813 653.236 459.36 653.526 459.088C653.816 458.815 654.27 458.834 654.542 459.106C656.791 461.464 659.005 463.859 661.127 466.235C661.399 466.526 661.363 466.997 661.073 467.251C660.928 467.378 660.764 467.433 660.583 467.433H660.601ZM643.149 449.327C642.967 449.327 642.786 449.255 642.641 449.128C640.373 446.915 638.033 444.701 635.638 442.47C635.348 442.198 635.33 441.744 635.602 441.454C635.874 441.164 636.328 441.146 636.618 441.418C639.031 443.649 641.371 445.88 643.639 448.094C643.929 448.366 643.929 448.838 643.639 449.11C643.494 449.255 643.312 449.327 643.113 449.327H643.149ZM624.626 432.311C624.463 432.311 624.282 432.256 624.155 432.129C621.76 430.043 619.311 427.938 616.825 425.834C616.517 425.58 616.481 425.126 616.735 424.818C616.989 424.51 617.442 424.473 617.751 424.727C620.254 426.832 622.703 428.936 625.098 431.041C625.406 431.295 625.424 431.766 625.171 432.057C625.025 432.22 624.826 432.311 624.626 432.311ZM605.324 416.183C605.16 416.183 604.997 416.128 604.87 416.019C602.385 414.024 599.845 412.028 597.287 410.033C596.978 409.779 596.924 409.325 597.16 409.017C597.396 408.708 597.867 408.654 598.176 408.89C600.752 410.885 603.292 412.881 605.777 414.876C606.086 415.13 606.14 415.584 605.886 415.892C605.741 416.074 605.523 416.165 605.324 416.165V416.183ZM585.404 400.835C585.259 400.835 585.096 400.78 584.969 400.69C582.411 398.785 579.798 396.88 577.168 394.993C576.841 394.757 576.769 394.304 577.005 393.977C577.24 393.651 577.694 393.578 578.02 393.814C580.669 395.719 583.263 397.624 585.84 399.529C586.166 399.764 586.221 400.218 585.985 400.545C585.84 400.744 585.622 400.835 585.404 400.835ZM564.959 386.195C564.813 386.195 564.668 386.158 564.541 386.068C561.911 384.253 559.244 382.421 556.559 380.607C556.232 380.389 556.142 379.936 556.359 379.609C556.577 379.283 557.031 379.192 557.357 379.41C560.06 381.224 562.709 383.056 565.358 384.87C565.684 385.106 565.775 385.541 565.539 385.868C565.394 386.068 565.176 386.176 564.94 386.176L564.959 386.195ZM544.059 372.189C543.932 372.189 543.787 372.153 543.66 372.08C540.975 370.339 538.254 368.597 535.533 366.856C535.188 366.638 535.097 366.202 535.315 365.858C535.533 365.513 535.986 365.422 536.313 365.64C539.052 367.382 541.773 369.123 544.458 370.865C544.785 371.083 544.894 371.536 544.676 371.863C544.531 372.08 544.313 372.189 544.078 372.189H544.059ZM522.779 358.783C522.652 358.783 522.525 358.746 522.398 358.674C519.659 357.005 516.901 355.336 514.126 353.685C513.781 353.485 513.672 353.032 513.872 352.687C514.071 352.342 514.525 352.233 514.869 352.433C517.645 354.102 520.421 355.771 523.16 357.44C523.505 357.64 523.614 358.093 523.396 358.438C523.251 358.656 523.015 358.783 522.779 358.783ZM501.154 345.956C501.027 345.956 500.9 345.92 500.792 345.866C498.016 344.269 495.204 342.673 492.392 341.076C492.047 340.877 491.92 340.441 492.12 340.097C492.319 339.752 492.773 339.625 493.1 339.825C495.93 341.421 498.723 343.018 501.517 344.614C501.862 344.814 501.989 345.249 501.789 345.594C501.662 345.829 501.408 345.956 501.154 345.956ZM479.203 333.693C479.094 333.693 478.967 333.656 478.858 333.602C476.046 332.078 473.198 330.554 470.35 329.03C470.005 328.849 469.86 328.413 470.042 328.051C470.223 327.688 470.677 327.561 471.021 327.742C473.888 329.266 476.718 330.79 479.548 332.314C479.892 332.495 480.038 332.949 479.838 333.294C479.711 333.529 479.457 333.675 479.203 333.675V333.693ZM456.961 321.973C456.853 321.973 456.744 321.955 456.635 321.901C453.75 320.431 450.884 318.98 447.999 317.547C447.637 317.365 447.492 316.93 447.673 316.585C447.854 316.222 448.29 316.077 448.653 316.259C451.519 317.692 454.404 319.143 457.288 320.631C457.651 320.812 457.778 321.248 457.596 321.61C457.469 321.864 457.215 322.009 456.943 322.009L456.961 321.973ZM434.43 310.798C434.321 310.798 434.212 310.78 434.121 310.725C431.2 309.329 428.298 307.95 425.395 306.589C425.032 306.426 424.869 305.99 425.05 305.628C425.214 305.265 425.649 305.12 426.012 305.283C428.914 306.644 431.835 308.022 434.756 309.437C435.119 309.619 435.264 310.036 435.101 310.399C434.974 310.653 434.72 310.816 434.448 310.816L434.43 310.798ZM411.626 300.203C411.517 300.203 411.426 300.185 411.335 300.131C408.378 298.806 405.439 297.5 402.5 296.212C402.137 296.049 401.974 295.632 402.119 295.251C402.264 294.87 402.7 294.724 403.081 294.87C406.02 296.158 408.977 297.464 411.934 298.788C412.297 298.951 412.46 299.387 412.297 299.75C412.17 300.022 411.916 300.185 411.644 300.185L411.626 300.203ZM388.568 290.189C388.477 290.189 388.386 290.189 388.295 290.135C385.302 288.883 382.327 287.667 379.37 286.452C379.007 286.307 378.825 285.871 378.971 285.509C379.116 285.146 379.551 284.964 379.914 285.109C382.889 286.307 385.864 287.54 388.858 288.792C389.221 288.955 389.402 289.373 389.239 289.736C389.13 290.008 388.858 290.189 388.568 290.189ZM365.237 280.828C365.237 280.828 365.056 280.828 364.983 280.774C361.954 279.613 358.942 278.47 355.949 277.363C355.568 277.218 355.387 276.801 355.513 276.438C355.659 276.057 356.076 275.875 356.439 276.002C359.432 277.109 362.462 278.252 365.491 279.413C365.872 279.558 366.054 279.975 365.909 280.356C365.8 280.647 365.528 280.828 365.237 280.828ZM341.635 272.174C341.635 272.174 341.472 272.174 341.399 272.138C338.333 271.068 335.286 270.034 332.256 269.018C331.875 268.891 331.675 268.474 331.802 268.111C331.929 267.73 332.347 267.53 332.709 267.657C335.739 268.673 338.805 269.707 341.871 270.796C342.252 270.923 342.452 271.34 342.325 271.721C342.216 272.011 341.944 272.211 341.635 272.211V272.174ZM317.761 264.301C317.761 264.301 317.616 264.301 317.543 264.265C314.441 263.303 311.357 262.378 308.291 261.471C307.91 261.362 307.692 260.963 307.801 260.564C307.91 260.183 308.309 259.965 308.708 260.074C311.774 260.981 314.858 261.906 317.978 262.868C318.359 262.995 318.577 263.394 318.45 263.775C318.359 264.083 318.069 264.283 317.761 264.283V264.301ZM293.596 257.335C293.596 257.335 293.469 257.335 293.415 257.316C290.258 256.482 287.138 255.666 284.054 254.904C283.673 254.813 283.437 254.414 283.528 254.033C283.618 253.652 284.017 253.398 284.398 253.507C287.482 254.269 290.621 255.085 293.778 255.92C294.159 256.028 294.394 256.428 294.286 256.809C294.195 257.135 293.905 257.353 293.596 257.353V257.335ZM160.781 252.4C160.527 252.4 160.273 252.255 160.146 252.019C159.947 251.674 160.092 251.221 160.437 251.039C163.122 249.57 166.151 248.264 169.417 247.157C169.798 247.03 170.197 247.23 170.342 247.611C170.469 247.992 170.269 248.409 169.888 248.536C166.696 249.624 163.757 250.894 161.144 252.309C161.035 252.364 160.908 252.4 160.799 252.4H160.781ZM269.159 251.439C269.159 251.439 269.051 251.439 269.014 251.439C265.821 250.749 262.665 250.114 259.544 249.516C259.145 249.443 258.891 249.062 258.964 248.663C259.036 248.264 259.417 248.01 259.816 248.082C262.937 248.681 266.093 249.334 269.305 250.024C269.704 250.114 269.939 250.495 269.867 250.876C269.794 251.221 269.486 251.457 269.159 251.457V251.439ZM244.432 246.885C244.432 246.885 244.36 246.885 244.323 246.885C241.094 246.395 237.883 245.96 234.763 245.579C234.364 245.524 234.092 245.18 234.128 244.781C234.182 244.381 234.545 244.109 234.926 244.146C238.065 244.527 241.294 244.962 244.523 245.452C244.922 245.506 245.194 245.887 245.122 246.268C245.067 246.631 244.759 246.885 244.414 246.885H244.432ZM184.71 245.071C184.365 245.071 184.057 244.817 184.003 244.454C183.948 244.055 184.22 243.692 184.619 243.638C187.685 243.184 190.933 242.839 194.289 242.604C194.688 242.567 195.033 242.876 195.069 243.275C195.087 243.674 194.797 244.019 194.398 244.055C191.078 244.291 187.867 244.635 184.837 245.071C184.801 245.071 184.765 245.071 184.728 245.071H184.71ZM219.451 244.128C219.451 244.128 219.415 244.128 219.397 244.128C216.095 243.91 212.866 243.783 209.764 243.71C209.365 243.71 209.038 243.366 209.056 242.966C209.056 242.567 209.31 242.277 209.8 242.259C212.92 242.331 216.168 242.459 219.488 242.676C219.887 242.694 220.195 243.039 220.159 243.438C220.141 243.819 219.814 244.109 219.433 244.109L219.451 244.128Z" fill="#343B97"/>
    <path d="M694.236 551.828C694.127 551.828 694 551.809 693.909 551.755C693.546 551.574 693.419 551.138 693.601 550.775C694.326 549.397 694.925 547.945 695.415 546.439C695.542 546.058 695.959 545.859 696.322 545.968C696.703 546.095 696.902 546.494 696.794 546.875C696.286 548.453 695.633 549.977 694.889 551.428C694.762 551.682 694.508 551.828 694.254 551.828H694.236Z" fill="#343B97"/>
    <path d="M708.967 290.207C708.64 290.207 708.332 289.971 708.259 289.645C707.933 288.121 707.461 286.597 706.898 285.146C706.753 284.765 706.935 284.348 707.298 284.202C707.66 284.057 708.096 284.239 708.241 284.602C708.84 286.125 709.329 287.722 709.674 289.318C709.765 289.717 709.511 290.098 709.112 290.171C709.057 290.171 709.003 290.171 708.967 290.171V290.207Z" fill="#343B97"/>
    <path d="M218.834 542.339C218.435 542.339 218.109 542.031 218.109 541.632C218.109 541.233 218.417 540.906 218.816 540.906C221.937 540.852 225.184 540.761 228.468 540.598C228.849 540.598 229.211 540.888 229.23 541.287C229.248 541.686 228.939 542.031 228.54 542.049C225.238 542.194 221.973 542.303 218.853 542.358L218.834 542.339ZM203.36 542.176H203.323C200.022 542.049 196.756 541.85 193.636 541.578C193.237 541.541 192.946 541.197 192.983 540.797C193.019 540.398 193.364 540.108 193.763 540.144C196.865 540.398 200.094 540.598 203.378 540.725C203.777 540.725 204.085 541.07 204.067 541.469C204.067 541.868 203.741 542.158 203.342 542.158L203.36 542.176ZM243.942 541.015C243.58 541.015 243.253 540.725 243.217 540.362C243.181 539.963 243.471 539.618 243.87 539.582C247.027 539.31 250.238 539.001 253.485 538.657C253.884 538.639 254.247 538.911 254.283 539.292C254.319 539.691 254.047 540.054 253.648 540.09C250.383 540.435 247.172 540.761 243.997 541.033C243.979 541.033 243.961 541.033 243.942 541.033V541.015ZM178.361 539.655C178.361 539.655 178.27 539.655 178.234 539.655C174.932 539.074 171.721 538.403 168.727 537.623C168.346 537.532 168.111 537.133 168.201 536.734C168.292 536.353 168.691 536.117 169.072 536.208C172.047 536.97 175.204 537.641 178.469 538.203C178.868 538.276 179.122 538.639 179.05 539.038C178.995 539.382 178.687 539.636 178.342 539.636L178.361 539.655ZM268.924 538.185C268.561 538.185 268.252 537.931 268.216 537.568C268.162 537.169 268.434 536.806 268.833 536.752C271.971 536.316 275.164 535.845 278.393 535.337C278.793 535.264 279.155 535.536 279.228 535.936C279.282 536.335 279.028 536.697 278.629 536.77C275.4 537.278 272.207 537.75 269.05 538.185C269.014 538.185 268.978 538.185 268.942 538.185H268.924ZM293.741 534.158C293.397 534.158 293.088 533.922 293.034 533.559C292.961 533.16 293.215 532.797 293.614 532.724C296.753 532.144 299.909 531.545 303.102 530.91C303.501 530.82 303.882 531.092 303.955 531.473C304.028 531.872 303.774 532.253 303.393 532.325C300.2 532.96 297.025 533.577 293.886 534.139C293.85 534.139 293.796 534.139 293.759 534.139L293.741 534.158ZM154.287 532.597C154.178 532.597 154.087 532.579 153.978 532.525C150.84 531.092 147.973 529.477 145.452 527.735C145.125 527.518 145.034 527.064 145.27 526.738C145.506 526.411 145.941 526.32 146.268 526.556C148.735 528.243 151.529 529.822 154.577 531.219C154.94 531.382 155.103 531.817 154.94 532.18C154.813 532.452 154.559 532.597 154.287 532.597ZM318.378 529.15C318.051 529.15 317.743 528.915 317.67 528.588C317.579 528.189 317.833 527.808 318.214 527.717C321.335 527.028 324.473 526.302 327.63 525.558C328.011 525.468 328.41 525.704 328.501 526.103C328.591 526.484 328.355 526.883 327.956 526.974C324.782 527.717 321.643 528.443 318.523 529.132C318.468 529.132 318.414 529.132 318.359 529.132L318.378 529.15ZM342.832 523.291C342.506 523.291 342.216 523.073 342.125 522.747C342.034 522.366 342.252 521.966 342.651 521.876C345.753 521.078 348.855 520.261 351.994 519.427C352.375 519.318 352.774 519.554 352.883 519.935C352.992 520.316 352.756 520.715 352.375 520.824C349.236 521.676 346.116 522.493 343.014 523.291C342.959 523.291 342.887 523.309 342.832 523.309V523.291ZM367.106 516.687C366.798 516.687 366.507 516.488 366.417 516.161C366.308 515.78 366.525 515.381 366.906 515.272C369.972 514.383 373.075 513.476 376.177 512.551C376.558 512.442 376.957 512.66 377.084 513.041C377.193 513.422 376.975 513.821 376.594 513.948C373.492 514.873 370.39 515.798 367.306 516.669C367.233 516.687 367.179 516.705 367.106 516.705V516.687ZM391.162 509.394C390.853 509.394 390.563 509.195 390.472 508.886C390.345 508.505 390.563 508.106 390.944 507.979C393.992 507 397.058 506.02 400.142 505.004C400.523 504.877 400.922 505.077 401.049 505.458C401.176 505.839 400.976 506.238 400.595 506.365C397.511 507.381 394.445 508.378 391.379 509.34C391.307 509.358 391.234 509.376 391.162 509.376V509.394ZM415.018 501.448C414.71 501.448 414.437 501.267 414.329 500.958C414.202 500.577 414.401 500.16 414.782 500.033C417.812 498.981 420.841 497.911 423.889 496.822C424.27 496.677 424.687 496.877 424.814 497.258C424.941 497.639 424.76 498.056 424.379 498.183C421.331 499.271 418.283 500.342 415.254 501.412C415.181 501.43 415.091 501.448 415.018 501.448ZM438.656 492.904C438.366 492.904 438.094 492.722 437.985 492.432C437.84 492.051 438.04 491.634 438.403 491.507C441.414 490.382 444.426 489.239 447.437 488.06C447.8 487.915 448.235 488.096 448.38 488.477C448.526 488.84 448.344 489.275 447.963 489.42C444.952 490.581 441.922 491.742 438.91 492.867C438.82 492.904 438.747 492.904 438.656 492.904ZM462.095 483.778C461.805 483.778 461.533 483.615 461.424 483.325C461.279 482.962 461.461 482.527 461.823 482.381C464.817 481.166 467.81 479.95 470.767 478.717C471.13 478.554 471.565 478.735 471.711 479.116C471.856 479.479 471.692 479.914 471.311 480.059C468.336 481.293 465.361 482.508 462.349 483.724C462.259 483.76 462.168 483.778 462.077 483.778H462.095ZM485.299 474.073C485.026 474.073 484.754 473.909 484.627 473.637C484.464 473.274 484.627 472.839 485.008 472.694C487.984 471.406 490.923 470.118 493.861 468.812C494.224 468.648 494.66 468.811 494.823 469.174C494.986 469.537 494.823 469.973 494.46 470.136C491.521 471.442 488.564 472.73 485.607 474.018C485.516 474.054 485.407 474.073 485.317 474.073H485.299ZM508.248 463.786C507.976 463.786 507.722 463.623 507.595 463.369C507.431 463.006 507.595 462.571 507.957 462.407C510.896 461.047 513.817 459.686 516.702 458.307C517.065 458.144 517.5 458.289 517.663 458.652C517.827 459.015 517.681 459.45 517.319 459.614C514.416 460.992 511.495 462.371 508.556 463.732C508.465 463.786 508.357 463.804 508.248 463.804V463.786ZM530.925 452.919C530.653 452.919 530.399 452.774 530.272 452.52C530.09 452.157 530.235 451.722 530.598 451.559C533.501 450.126 536.385 448.674 539.234 447.223C539.578 447.042 540.032 447.169 540.213 447.531C540.395 447.894 540.25 448.33 539.905 448.511C537.057 449.962 534.172 451.414 531.269 452.865C531.161 452.919 531.052 452.938 530.943 452.938L530.925 452.919ZM553.275 441.418C553.021 441.418 552.767 441.273 552.64 441.037C552.459 440.692 552.586 440.238 552.949 440.057C555.815 438.533 558.645 437.009 561.439 435.467C561.784 435.286 562.237 435.395 562.419 435.757C562.618 436.102 562.491 436.556 562.128 436.737C559.316 438.279 556.486 439.803 553.602 441.345C553.493 441.399 553.384 441.436 553.257 441.436L553.275 441.418ZM575.281 429.263C575.027 429.263 574.791 429.136 574.646 428.9C574.447 428.555 574.574 428.12 574.918 427.92C577.73 426.306 580.524 424.673 583.263 423.058C583.608 422.859 584.043 422.968 584.261 423.312C584.461 423.657 584.352 424.092 584.007 424.31C581.25 425.943 578.474 427.557 575.644 429.19C575.535 429.263 575.408 429.281 575.281 429.281V429.263ZM596.87 416.382C596.634 416.382 596.398 416.255 596.253 416.038C596.035 415.693 596.144 415.257 596.489 415.04C599.246 413.316 601.967 411.593 604.652 409.887C604.979 409.67 605.432 409.76 605.65 410.105C605.868 410.432 605.777 410.885 605.432 411.103C602.747 412.826 600.008 414.55 597.251 416.273C597.124 416.346 596.997 416.382 596.87 416.382ZM617.968 402.703C617.732 402.703 617.515 402.595 617.37 402.395C617.152 402.068 617.225 401.615 617.569 401.397C620.272 399.565 622.921 397.733 625.515 395.9C625.842 395.664 626.295 395.737 626.531 396.082C626.767 396.408 626.676 396.862 626.35 397.098C623.737 398.93 621.089 400.762 618.386 402.613C618.259 402.703 618.113 402.74 617.986 402.74L617.968 402.703ZM638.432 388.099C638.214 388.099 637.997 387.991 637.852 387.809C637.616 387.483 637.67 387.029 637.997 386.793C640.609 384.834 643.167 382.856 645.652 380.915C645.961 380.661 646.414 380.716 646.668 381.042C646.922 381.351 646.868 381.804 646.541 382.058C644.038 384.018 641.48 385.995 638.867 387.972C638.74 388.063 638.577 388.118 638.432 388.118V388.099ZM658.061 372.407C657.862 372.407 657.662 372.316 657.517 372.153C657.263 371.845 657.299 371.391 657.59 371.137C660.093 369.014 662.524 366.856 664.846 364.769C665.155 364.497 665.608 364.515 665.862 364.824C666.134 365.114 666.098 365.586 665.808 365.84C663.486 367.944 661.037 370.103 658.533 372.244C658.406 372.352 658.225 372.425 658.061 372.425V372.407ZM676.511 355.336C676.33 355.336 676.148 355.263 676.003 355.136C675.713 354.864 675.713 354.392 676.003 354.12C678.325 351.762 680.557 349.403 682.625 347.117C682.897 346.827 683.351 346.791 683.641 347.063C683.931 347.335 683.967 347.789 683.695 348.079C681.609 350.383 679.36 352.76 677.037 355.136C676.892 355.281 676.711 355.354 676.529 355.354L676.511 355.336ZM693.038 336.396C692.893 336.396 692.73 336.341 692.603 336.251C692.276 336.015 692.222 335.561 692.458 335.235C694.453 332.568 696.304 329.919 697.955 327.343C698.172 326.998 698.626 326.908 698.952 327.125C699.279 327.343 699.388 327.779 699.17 328.123C697.501 330.736 695.633 333.421 693.619 336.106C693.474 336.287 693.256 336.396 693.038 336.396ZM705.774 314.789C705.683 314.789 705.592 314.789 705.502 314.735C705.139 314.59 704.957 314.154 705.103 313.791C706.372 310.671 707.352 307.623 707.987 304.702C708.078 304.321 708.459 304.067 708.84 304.158C709.221 304.249 709.475 304.63 709.384 305.011C708.731 308.004 707.733 311.143 706.427 314.336C706.318 314.608 706.046 314.789 705.756 314.789H705.774Z" fill="#343B97"/>
    <path d="M135.129 516.814C134.875 516.814 134.639 516.687 134.512 516.47C133.66 515.054 132.934 513.567 132.335 512.043C132.19 511.68 132.372 511.245 132.734 511.1C133.115 510.954 133.533 511.136 133.678 511.499C134.24 512.95 134.948 514.365 135.764 515.708C135.964 516.052 135.855 516.488 135.51 516.705C135.401 516.778 135.256 516.814 135.147 516.814H135.129Z" fill="#343B97"/>
    <path d="M353.899 707.374C353.899 707.374 353.772 707.374 353.717 707.356C352.121 706.957 350.561 706.412 349.055 705.759C348.692 705.596 348.529 705.179 348.674 704.798C348.837 704.435 349.273 704.272 349.617 704.417C351.051 705.052 352.556 705.56 354.062 705.941C354.443 706.031 354.679 706.43 354.588 706.811C354.498 707.138 354.207 707.356 353.881 707.356L353.899 707.374Z" fill="#343B97"/>
    <path d="M337.045 696.616C336.846 696.616 336.646 696.543 336.501 696.38C334.451 694.094 332.492 691.464 330.659 688.525C330.442 688.18 330.551 687.745 330.895 687.527C331.24 687.309 331.675 687.418 331.893 687.763C333.671 690.611 335.594 693.187 337.571 695.418C337.844 695.709 337.807 696.18 337.517 696.434C337.372 696.561 337.209 696.616 337.027 696.616H337.045ZM324.419 675.027C324.128 675.027 323.856 674.846 323.747 674.574C322.605 671.707 321.516 668.623 320.518 665.394C320.391 665.013 320.609 664.614 320.99 664.487C321.371 664.378 321.77 664.578 321.897 664.959C322.895 668.133 323.965 671.199 325.09 674.029C325.235 674.41 325.054 674.828 324.691 674.973C324.6 675.009 324.509 675.027 324.419 675.027ZM317.343 650.935C317.017 650.935 316.709 650.699 316.636 650.355C315.983 647.307 315.366 644.096 314.822 640.83C314.749 640.431 315.021 640.068 315.42 639.996C315.801 639.941 316.182 640.195 316.255 640.594C316.799 643.842 317.416 647.035 318.069 650.064C318.16 650.445 317.906 650.844 317.507 650.917C317.452 650.917 317.398 650.917 317.362 650.917L317.343 650.935ZM313.407 626.099C313.044 626.099 312.736 625.827 312.681 625.464L312.554 624.249C312.264 621.491 311.992 618.679 311.756 615.813C311.72 615.414 312.01 615.069 312.409 615.033C312.826 614.997 313.153 615.305 313.189 615.704C313.425 618.552 313.679 621.364 313.987 624.104L314.114 625.301C314.151 625.7 313.878 626.063 313.479 626.099C313.443 626.099 313.425 626.099 313.389 626.099H313.407ZM311.538 601.028C311.157 601.028 310.831 600.719 310.813 600.338C310.686 597.163 310.577 593.934 310.522 590.651C310.522 590.251 310.831 589.925 311.23 589.907C311.593 589.907 311.955 590.215 311.974 590.614C312.046 593.88 312.137 597.109 312.264 600.266C312.264 600.665 311.974 601.009 311.574 601.028H311.538ZM311.175 575.883C310.776 575.883 310.45 575.557 310.468 575.158C310.504 571.965 310.577 568.736 310.667 565.47C310.667 565.071 310.94 564.744 311.411 564.763C311.81 564.763 312.119 565.107 312.119 565.506C312.028 568.772 311.955 571.983 311.919 575.158C311.919 575.557 311.593 575.865 311.193 575.865L311.175 575.883ZM312.01 550.757C312.01 550.757 311.992 550.757 311.974 550.757C311.574 550.739 311.266 550.394 311.284 549.995C311.466 546.802 311.665 543.591 311.883 540.326C311.919 539.927 312.264 539.618 312.663 539.655C313.062 539.691 313.37 540.035 313.334 540.416C313.116 543.664 312.917 546.875 312.736 550.068C312.717 550.449 312.391 550.757 312.01 550.757ZM313.842 525.685C313.842 525.685 313.806 525.685 313.77 525.685C313.37 525.649 313.08 525.304 313.117 524.905C313.407 521.712 313.715 518.501 314.06 515.272C314.096 514.873 314.459 514.619 314.858 514.619C315.257 514.655 315.547 515.018 315.511 515.417C315.166 518.646 314.858 521.858 314.568 525.032C314.532 525.413 314.223 525.685 313.842 525.685ZM316.545 500.686C316.545 500.686 316.491 500.686 316.455 500.686C316.055 500.632 315.783 500.269 315.82 499.888C316.219 496.713 316.636 493.502 317.071 490.291C317.126 489.892 317.489 489.602 317.888 489.674C318.287 489.729 318.559 490.092 318.505 490.491C318.069 493.702 317.652 496.895 317.253 500.069C317.217 500.432 316.89 500.704 316.527 500.704L316.545 500.686ZM320.028 475.778C320.028 475.778 319.956 475.778 319.92 475.778C319.52 475.723 319.248 475.342 319.321 474.961C319.811 471.787 320.319 468.612 320.845 465.401C320.917 465.002 321.28 464.748 321.679 464.802C322.078 464.875 322.332 465.238 322.278 465.637C321.752 468.83 321.244 472.023 320.754 475.179C320.7 475.542 320.391 475.796 320.047 475.796L320.028 475.778ZM324.219 450.978C324.219 450.978 324.128 450.978 324.092 450.978C323.693 450.906 323.439 450.525 323.512 450.144C324.092 446.987 324.691 443.812 325.308 440.638C325.38 440.238 325.779 439.984 326.16 440.057C326.559 440.13 326.813 440.511 326.741 440.91C326.124 444.084 325.525 447.259 324.963 450.416C324.909 450.761 324.6 451.015 324.255 451.015L324.219 450.978ZM329.063 426.306C329.063 426.306 328.972 426.306 328.918 426.306C328.519 426.215 328.283 425.834 328.355 425.453C329.009 422.315 329.698 419.158 330.387 415.983C330.478 415.584 330.859 415.348 331.258 415.439C331.639 415.53 331.893 415.911 331.802 416.31C331.113 419.466 330.424 422.623 329.77 425.761C329.698 426.106 329.39 426.342 329.063 426.342V426.306ZM334.542 401.76C334.542 401.76 334.433 401.76 334.378 401.742C333.998 401.651 333.744 401.252 333.834 400.871C334.578 397.751 335.322 394.612 336.102 391.456C336.193 391.075 336.592 390.839 336.973 390.93C337.354 391.02 337.59 391.419 337.499 391.8C336.719 394.939 335.975 398.077 335.231 401.198C335.159 401.524 334.85 401.76 334.524 401.76H334.542ZM340.619 377.36C340.619 377.36 340.492 377.36 340.438 377.341C340.057 377.233 339.821 376.852 339.93 376.452C340.746 373.314 341.581 370.212 342.433 367.11C342.542 366.729 342.923 366.493 343.322 366.602C343.703 366.71 343.939 367.11 343.83 367.491C342.996 370.593 342.161 373.695 341.327 376.833C341.236 377.16 340.946 377.378 340.619 377.378V377.36ZM347.295 353.122C347.295 353.122 347.168 353.122 347.096 353.086C346.715 352.977 346.497 352.578 346.606 352.197C347.513 349.077 348.42 345.993 349.345 342.909C349.454 342.528 349.871 342.31 350.252 342.419C350.633 342.528 350.851 342.945 350.742 343.326C349.817 346.392 348.91 349.494 348.021 352.596C347.93 352.905 347.64 353.122 347.332 353.122H347.295ZM354.588 329.048C354.588 329.048 354.443 329.048 354.371 329.012C353.99 328.885 353.772 328.486 353.899 328.105C354.879 325.021 355.876 321.937 356.874 318.889C357.001 318.508 357.4 318.309 357.781 318.436C358.162 318.563 358.362 318.962 358.235 319.343C357.237 322.39 356.239 325.456 355.259 328.54C355.169 328.849 354.878 329.048 354.57 329.048H354.588ZM362.498 305.174C362.498 305.174 362.335 305.174 362.262 305.138C361.881 305.011 361.682 304.594 361.809 304.213C362.879 301.147 363.949 298.099 365.02 295.087C365.147 294.706 365.564 294.507 365.945 294.652C366.326 294.779 366.525 295.196 366.38 295.577C365.292 298.589 364.221 301.636 363.169 304.684C363.06 304.993 362.788 305.174 362.48 305.174H362.498ZM371.061 281.536C371.061 281.536 370.898 281.536 370.807 281.481C370.426 281.336 370.244 280.919 370.39 280.556C371.551 277.508 372.712 274.497 373.873 271.521C374.018 271.159 374.435 270.959 374.816 271.104C375.197 271.249 375.379 271.667 375.233 272.047C374.072 275.023 372.911 278.034 371.75 281.064C371.641 281.354 371.369 281.536 371.079 281.536H371.061ZM380.331 258.169C380.24 258.169 380.15 258.169 380.059 258.115C379.696 257.97 379.515 257.534 379.678 257.171C380.93 254.16 382.182 251.185 383.452 248.264C383.615 247.901 384.032 247.72 384.395 247.883C384.758 248.046 384.939 248.463 384.776 248.826C383.506 251.765 382.254 254.722 381.021 257.734C380.912 258.006 380.64 258.187 380.349 258.187L380.331 258.169ZM390.363 235.111C390.273 235.111 390.164 235.093 390.055 235.039C389.692 234.875 389.529 234.44 389.692 234.077C391.053 231.102 392.414 228.181 393.774 225.297C393.937 224.934 394.373 224.789 394.736 224.952C395.098 225.115 395.244 225.55 395.08 225.913C393.72 228.798 392.359 231.719 390.998 234.676C390.871 234.948 390.617 235.093 390.345 235.093L390.363 235.111ZM401.267 212.452C401.158 212.452 401.049 212.434 400.94 212.38C400.577 212.198 400.432 211.763 400.614 211.4C402.083 208.479 403.571 205.613 405.058 202.801C405.24 202.456 405.693 202.311 406.038 202.493C406.383 202.674 406.528 203.109 406.346 203.472C404.859 206.284 403.371 209.132 401.902 212.053C401.775 212.307 401.521 212.452 401.248 212.452H401.267ZM413.149 190.301C413.022 190.301 412.914 190.265 412.787 190.211C412.442 190.011 412.315 189.576 412.514 189.231L413.893 186.8C415.054 184.786 416.215 182.809 417.395 180.85C417.594 180.505 418.048 180.396 418.392 180.596C418.737 180.795 418.846 181.249 418.646 181.593C417.485 183.535 416.324 185.512 415.163 187.526L413.784 189.938C413.657 190.174 413.403 190.301 413.149 190.301ZM426.229 168.822C426.102 168.822 425.957 168.785 425.83 168.713C425.504 168.495 425.395 168.042 425.613 167.715C427.409 164.957 429.241 162.254 431.037 159.678C431.273 159.352 431.708 159.261 432.053 159.497C432.38 159.733 432.452 160.168 432.234 160.513C430.456 163.071 428.642 165.756 426.828 168.513C426.683 168.731 426.465 168.84 426.229 168.84V168.822ZM440.815 148.358C440.652 148.358 440.507 148.303 440.362 148.213C440.053 147.959 439.999 147.505 440.235 147.197C442.285 144.584 444.353 142.063 446.385 139.686C446.639 139.378 447.092 139.342 447.401 139.614C447.709 139.868 447.745 140.321 447.473 140.63C445.46 142.988 443.391 145.492 441.378 148.086C441.233 148.267 441.015 148.358 440.815 148.358ZM457.487 129.563C457.306 129.563 457.107 129.491 456.961 129.346C456.689 129.055 456.689 128.602 456.961 128.33C459.374 125.971 461.805 123.776 464.164 121.799C464.472 121.545 464.926 121.581 465.18 121.889C465.434 122.198 465.397 122.651 465.089 122.905C462.749 124.846 460.354 127.023 457.959 129.364C457.814 129.509 457.633 129.563 457.451 129.563H457.487ZM477.28 114.179C477.026 114.179 476.79 114.052 476.645 113.816C476.445 113.472 476.573 113.036 476.917 112.837C479.911 111.131 482.904 109.753 485.788 108.718C486.151 108.591 486.587 108.773 486.714 109.154C486.841 109.535 486.659 109.952 486.278 110.079C483.466 111.077 480.564 112.438 477.643 114.107C477.534 114.179 477.407 114.197 477.28 114.197V114.179Z" fill="#343B97"/>
    <path d="M506.053 108.646C506.053 108.646 505.926 108.646 505.871 108.628C504.365 108.247 502.805 107.975 501.245 107.848C500.846 107.811 500.556 107.467 500.592 107.068C500.628 106.668 500.973 106.378 501.372 106.414C503.023 106.56 504.656 106.832 506.234 107.231C506.615 107.322 506.851 107.721 506.76 108.102C506.669 108.428 506.379 108.646 506.053 108.646Z" fill="#343B97"/>
    <path d="M323.258 529.495C323.258 534.92 318.867 539.31 313.443 539.31C308.019 539.31 303.628 534.92 303.628 529.495C303.628 524.071 308.019 519.681 313.443 519.681C318.867 519.681 323.258 524.071 323.258 529.495Z" fill="#F79457"/>
    <path d="M602.367 423.076C607.787 423.076 612.181 418.682 612.181 413.262C612.181 407.841 607.787 403.447 602.367 403.447C596.946 403.447 592.552 407.841 592.552 413.262C592.552 418.682 596.946 423.076 602.367 423.076Z" fill="#FAAD67"/>
    <path d="M709.692 311.868C715.113 311.868 719.507 307.474 719.507 302.054C719.507 296.633 715.113 292.239 709.692 292.239C704.272 292.239 699.878 296.633 699.878 302.054C699.878 307.474 704.272 311.868 709.692 311.868Z" fill="#F79457"/>
    <path d="M166.042 252.745C166.042 258.169 161.652 262.559 156.228 262.559C150.803 262.559 146.413 258.169 146.413 252.745C146.413 247.32 150.803 242.93 156.228 242.93C161.652 242.93 166.042 247.32 166.042 252.745Z" fill="#F79457"/>
    <path d="M375.179 283.858C375.179 286.724 372.857 289.046 369.99 289.046C367.124 289.046 364.802 286.724 364.802 283.858C364.802 280.991 367.124 278.669 369.99 278.669C372.857 278.669 375.179 280.991 375.179 283.858Z" fill="#FAAD67"/>
    <path d="M699.66 541.124C702.526 541.124 704.849 538.801 704.849 535.936C704.849 533.07 702.526 530.747 699.66 530.747C696.794 530.747 694.471 533.07 694.471 535.936C694.471 538.801 696.794 541.124 699.66 541.124Z" fill="#F79457"/>
    <path d="M359.087 706.648C359.087 709.515 356.765 711.837 353.899 711.837C351.033 711.837 348.71 709.515 348.71 706.648C348.71 703.782 351.033 701.46 353.899 701.46C356.765 701.46 359.087 703.782 359.087 706.648Z" fill="#FAAD67"/>
    <path d="M139.864 517.268C139.864 520.134 137.542 522.456 134.676 522.456C131.809 522.456 129.487 520.134 129.487 517.268C129.487 514.401 131.809 512.079 134.676 512.079C137.542 512.079 139.864 514.401 139.864 517.268Z" fill="#FAAD67"/>
    <path d="M511.241 107.92C511.241 110.787 508.919 113.109 506.053 113.109C503.186 113.109 500.864 110.787 500.864 107.92C500.864 105.054 503.186 102.732 506.053 102.732C508.919 102.732 511.241 105.054 511.241 107.92Z" fill="#F79457"/>
    <path d="M330.877 504.297C301.397 503.97 276.452 480.531 274.094 450.906L268.706 383.6C267.418 367.545 272.697 351.816 283.183 340.46C293.215 329.575 306.93 323.57 321.788 323.533L847.206 322.572C863.66 322.572 878.028 329.139 887.789 341.076C897.766 353.286 901.522 369.903 898.111 386.63L883.725 457.219C877.738 486.554 849.165 509.539 818.687 509.539L330.877 504.297Z" fill="#F79457"/>
    <path d="M847.242 336.214L321.824 337.176C297.986 337.212 280.371 357.875 282.33 382.494L287.718 449.799C289.514 472.367 308.871 490.382 331.04 490.618L818.197 495.861C842.253 496.115 865.565 478.046 870.355 454.48L884.741 383.891C890.002 358.057 873.293 336.16 847.242 336.214Z" fill="#83C2EB"/>
    <path d="M931.147 561.824L870.01 487.225C869.52 486.645 869.375 485.846 869.629 485.121C869.865 484.395 870.463 483.851 871.207 483.669L925.215 470.716C927.41 470.19 929.079 468.394 929.442 466.181C929.805 463.95 928.807 461.718 926.902 460.521L772.807 363.137C770.938 361.957 768.544 361.975 766.711 363.209C764.861 364.425 763.918 366.62 764.28 368.797L796.319 562.259C796.7 564.581 798.496 566.413 800.818 566.849C803.14 567.284 805.48 566.232 806.677 564.2L836.575 514.02C836.956 513.385 837.609 512.986 838.335 512.95C839.06 512.896 839.768 513.222 840.221 513.803L897.168 586.841C900.433 591.032 906.384 591.957 910.774 588.982L929.043 576.555C931.383 574.958 932.943 572.473 933.342 569.661C933.741 566.867 932.961 564.019 931.165 561.842L931.147 561.824Z" fill="#525DAA"/>
    <path d="M250.274 240.155C238.409 246.268 247.897 264.718 259.78 258.586C271.645 252.473 262.157 234.023 250.274 240.155Z" fill="#5058A6"/>
    <path d="M269.613 203.708C257.748 209.822 267.236 228.272 279.119 222.14C290.984 216.026 281.496 197.576 269.613 203.708Z" fill="#5058A6"/>
    <path d="M256.17 251.584C255.462 251.947 254.61 251.965 253.848 251.584C252.632 250.931 252.161 249.425 252.814 248.209L272.153 211.763C272.788 210.547 274.312 210.076 275.527 210.729C276.743 211.382 277.214 212.888 276.561 214.103L257.222 250.55C256.968 251.021 256.605 251.366 256.17 251.602V251.584Z" fill="#5058A6"/>
    <path d="M300.689 263.956C288.825 270.07 279.3 251.656 291.183 245.524C303.048 239.411 312.572 257.824 300.689 263.956Z" fill="#5058A6"/>
    <path d="M297.079 256.954C296.644 257.171 296.136 257.28 295.61 257.208L254.7 251.838C253.34 251.656 252.378 250.405 252.56 249.044C252.741 247.683 253.993 246.722 255.354 246.903L296.263 252.273C297.624 252.455 298.585 253.706 298.404 255.067C298.295 255.901 297.769 256.591 297.079 256.954Z" fill="#5058A6"/>
    <path d="M581.395 166.608C573.63 166.608 566.083 164.177 559.661 159.533C551.606 153.71 546.309 145.092 544.73 135.278C541.483 115.014 555.325 95.8923 575.571 92.645C595.817 89.4158 614.957 103.24 618.204 123.486C619.782 133.3 617.442 143.133 611.6 151.188C605.777 159.243 597.16 164.54 587.345 166.119C585.35 166.445 583.354 166.59 581.377 166.59L581.395 166.608ZM581.485 97.6158C579.816 97.6158 578.129 97.7428 576.442 98.0149C559.153 100.791 547.325 117.118 550.1 134.407C551.443 142.788 555.96 150.136 562.836 155.107C569.711 160.077 578.111 162.091 586.492 160.73C603.781 157.955 615.61 141.627 612.834 124.338C610.331 108.737 596.815 97.5977 581.485 97.5977V97.6158Z" fill="#525DAA"/>
    <path d="M586.112 166.227C581.83 166.227 577.476 162.762 573.739 156.322C570.074 150.009 567.226 141.337 565.72 131.922C562.872 114.107 565.358 94.2959 575.589 92.6631C580.27 91.9193 585.114 95.4025 589.214 102.478C592.878 108.791 595.727 117.463 597.232 126.878C598.738 136.294 598.738 145.419 597.232 152.567C595.545 160.567 592.026 165.393 587.345 166.155C586.928 166.227 586.511 166.246 586.093 166.246L586.112 166.227ZM576.841 97.9968C576.714 97.9968 576.587 97.9968 576.46 98.0331C572.124 98.7224 567.988 111.639 571.09 131.069C572.505 139.849 575.118 147.85 578.456 153.601C581.231 158.372 584.316 161.148 586.529 160.767C588.724 160.422 590.81 156.83 591.953 151.442C593.332 144.929 593.314 136.511 591.899 127.749C590.484 118.987 587.871 110.968 584.533 105.217C581.921 100.718 579.018 98.0149 576.859 98.0149L576.841 97.9968Z" fill="#525DAA"/>
    <path d="M570.437 146.272C557.339 146.272 545.964 142.952 544.73 135.296C543.987 130.615 547.47 125.772 554.545 121.672C560.858 118.007 569.53 115.159 578.946 113.653C596.761 110.805 616.571 113.29 618.222 123.522C618.966 128.203 615.483 133.046 608.408 137.146C602.094 140.811 593.423 143.659 584.007 145.165C579.508 145.891 574.882 146.272 570.437 146.272ZM592.751 117.916C588.869 117.916 584.533 118.243 579.798 119.005C571.018 120.42 563.017 123.032 557.266 126.37C552.495 129.146 549.738 132.23 550.1 134.443C550.79 138.779 563.707 142.915 583.136 139.813C591.917 138.398 599.917 135.786 605.668 132.448C610.439 129.672 613.197 126.588 612.834 124.393C612.308 121.109 604.797 117.934 592.751 117.934V117.916Z" fill="#525DAA"/>
    <path d="M661.78 612.239C661.817 611.622 661.871 611.006 661.871 610.371C661.871 592.41 647.303 577.843 629.343 577.843C615.12 577.843 603.038 587.004 598.629 599.721C596.108 597.49 592.824 596.129 589.196 596.129C581.322 596.129 574.954 602.497 574.954 610.371C574.954 610.425 574.954 610.461 574.954 610.516C563.289 611.786 554.219 621.655 554.219 633.664C554.219 646.527 564.65 656.958 577.512 656.958H652.637C665.499 656.958 675.931 646.527 675.931 633.664C675.931 624.049 670.107 615.795 661.798 612.239H661.78Z" fill="white"/>
    <path d="M629.343 629.728V605.817H605.432V629.728H600.226L617.388 648.395L634.55 629.728H629.343Z" fill="#FAAD67"/>
    <path d="M446.149 323.443C434.448 304.938 411.045 292.965 381.964 290.625C366.598 289.391 350.905 290.588 335.739 291.749C326.178 292.475 316.291 293.237 306.549 293.382C275.346 293.836 251.29 286.833 234.999 272.519C224.694 263.466 216.857 250.876 212.34 236.127C209.238 226.004 208.457 217.242 209.963 209.296C210.87 204.488 212.684 200.043 215.206 196.27C214.68 194.8 214.227 193.404 213.827 192.116C202.326 154.544 211.723 111.258 237.792 81.8507L239.153 83.0481C213.501 112.002 204.23 154.599 215.569 191.589C215.841 192.496 216.15 193.476 216.512 194.474C218.871 191.444 221.719 188.941 224.912 187.181C233.529 182.446 244.414 183.607 250.818 189.938C254.229 193.313 256.115 198.411 255.862 203.563C255.626 208.28 253.666 212.343 250.383 214.992C243.217 220.761 232.713 218.53 226.472 213.504C221.392 209.423 218.181 203.654 216.041 198.356C214.009 201.676 212.539 205.504 211.777 209.604C210.344 217.242 211.106 225.75 214.118 235.565C218.526 250.005 226.182 262.287 236.25 271.122C252.197 285.128 275.854 291.985 306.586 291.532C316.273 291.386 326.124 290.643 335.667 289.899C350.905 288.738 366.671 287.522 382.163 288.774C411.825 291.169 435.736 303.432 447.745 322.427L446.222 323.388L446.149 323.443ZM217.22 196.524C219.27 201.894 222.408 207.953 227.561 212.108C233.257 216.697 242.763 218.766 249.185 213.595C252.07 211.273 253.775 207.681 253.993 203.49C254.229 198.846 252.542 194.274 249.494 191.245C243.743 185.566 233.547 184.514 225.746 188.796C222.445 190.61 219.542 193.277 217.22 196.542V196.524Z" fill="white"/>
    <path d="M247.226 18.7179C265.803 -2.32639 289.514 -5.13834 304.227 7.83292C318.958 20.8223 319.085 44.6967 300.508 65.741C299.238 67.1742 293.923 73.0702 289.986 77.3153C289.17 78.1861 288.426 78.9844 287.791 79.6737C286.938 80.5627 286.267 81.2702 285.868 81.5967C268.216 97.6158 252.723 94.9853 239.008 85.5879C238.3 85.1162 237.629 84.5901 236.976 84.0096C236.323 83.4291 235.706 82.8304 235.162 82.1954C224.168 69.7503 219.615 54.6927 233.33 35.2086C233.62 34.7914 234.219 34.0294 234.999 33.0679C235.579 32.3423 236.287 31.4896 237.067 30.5825C240.786 26.1378 245.974 20.1329 247.226 18.7179Z" fill="#6066AE"/>
    <path d="M263.571 51.4755L235.776 82.9592L238.156 85.0604L265.951 53.5767L263.571 51.4755Z" fill="#343B97"/>
    <path d="M245.988 69.9492L249.824 73.3351C250.747 74.1507 252.158 74.063 252.973 73.1392L261.33 63.6737C262.146 62.7498 262.058 61.3397 261.134 60.524L257.299 57.1381C256.375 56.3225 254.965 56.4102 254.149 57.3341L245.792 66.7996C244.977 67.7234 245.065 69.1336 245.988 69.9492Z" fill="#FAAD67"/>
    <path d="M237.049 30.5825C247.353 36.6237 256.95 43.5538 265.785 51.3547C274.62 59.1556 282.693 67.8091 289.968 77.3153C289.151 78.1861 288.408 78.9843 287.773 79.6737C273.332 60.6976 255.589 45.0414 234.981 33.0679C235.561 32.3422 236.269 31.4896 237.049 30.5825Z" fill="#343B97"/>
    <path d="M161.079 350.41L69.0971 328.819L54.5994 390.582L146.581 412.173L161.079 350.41Z" fill="white"/>
    <path d="M154.971 353.803L73.0392 334.571L60.6891 387.185L142.621 406.417L154.971 353.803Z" fill="#6066AE"/>
    <path d="M145.996 392.109L132.353 370.121L114.683 381.079L95.6166 350.31L64.8847 369.359L60.694 387.192L142.622 406.422L145.996 392.109Z" fill="#5058A6"/>
    <path d="M126.711 360.452C125.659 364.969 121.142 367.763 116.625 366.692C112.107 365.64 109.314 361.123 110.384 356.606C111.436 352.088 115.953 349.294 120.471 350.365C124.988 351.417 127.782 355.934 126.711 360.452Z" fill="#FAAD67"/>
    <path d="M419.735 252.854V463.242H357.164V252.854H419.735Z" fill="#939598"/>
    <path d="M530.399 306.335C552.187 306.335 570.854 314.172 586.42 329.847C601.986 345.521 609.768 364.298 609.768 386.176C609.768 408.055 601.877 427.285 586.112 442.905C570.328 458.525 551.298 466.326 529.002 466.326C506.706 466.326 487.639 458.489 471.819 442.815C456 427.14 448.09 408.273 448.09 386.176C448.09 364.08 456 344.741 471.819 329.375C487.639 314.009 507.159 306.335 530.399 306.335ZM528.857 363.209C522.688 363.209 517.446 365.441 513.128 369.922C508.81 374.402 506.651 379.863 506.651 386.34C506.651 392.816 508.828 398.15 513.2 402.685C517.573 407.203 522.779 409.47 528.839 409.47C534.898 409.47 540.268 407.203 544.64 402.685C549.012 398.168 551.189 392.726 551.189 386.34C551.189 379.954 549.03 374.402 544.712 369.922C540.395 365.459 535.097 363.209 528.839 363.209H528.857Z" fill="#939598"/>
    <path d="M729.703 313.283V463.26H667.132V313.283H619.202V252.854H777.506V313.283H729.721H729.703Z" fill="#939598"/>
    <path d="M412.478 248.482V453.101C412.478 454.697 411.19 455.985 409.594 455.985H352.792C351.196 455.985 349.908 454.697 349.908 453.101V248.482C349.908 246.885 351.196 245.597 352.792 245.597H409.594C411.19 245.597 412.478 246.885 412.478 248.482Z" fill="white"/>
    <path d="M523.142 299.078C544.93 299.078 563.598 306.916 579.163 322.59C592.897 336.414 600.57 352.669 602.185 371.337C604.489 397.896 593.368 424.165 572.814 441.127C558.282 453.101 541.265 459.088 521.745 459.088C499.449 459.088 480.382 451.25 464.563 435.576C448.743 419.902 440.833 401.034 440.833 378.938C440.833 356.841 448.743 337.502 464.563 322.136C480.382 306.771 499.903 299.097 523.142 299.097V299.078ZM521.6 355.952C515.432 355.952 510.189 358.184 505.871 362.665C501.553 367.146 499.395 372.606 499.395 379.083C499.395 385.56 501.572 390.893 505.944 395.429C510.316 399.946 515.523 402.214 521.582 402.214C527.641 402.214 533.011 399.946 537.383 395.429C541.755 390.911 543.932 385.469 543.932 379.083C543.932 372.697 541.773 367.146 537.456 362.665C533.138 358.202 527.841 355.952 521.582 355.952H521.6Z" fill="white"/>
    <path d="M722.446 308.911V453.119C722.446 454.715 721.158 456.003 719.561 456.003H662.76C661.163 456.003 659.875 454.715 659.875 453.119V308.911C659.875 307.315 658.587 306.027 656.991 306.027H614.83C613.233 306.027 611.945 304.739 611.945 303.142V248.482C611.945 246.885 613.233 245.597 614.83 245.597H767.364C768.961 245.597 770.249 246.885 770.249 248.482V303.142C770.249 304.739 768.961 306.027 767.364 306.027H725.348C723.752 306.027 722.464 307.315 722.464 308.911H722.446Z" fill="white"/>
    <path d="M107.735 664.65H100.914V738.323H107.735V664.65Z" fill="#8193CA"/>
    <path d="M74.4816 739.738H134.149V736.527C134.149 735.856 133.605 735.312 132.934 735.312H75.7878C75.0621 735.312 74.4816 735.892 74.4816 736.618V739.738Z" fill="#8193CA"/>
    <path d="M135.147 647.107H70.9803C66.682 647.107 63.1975 650.592 63.1975 654.89V661.929C63.1975 666.227 66.682 669.712 70.9803 669.712H135.147C139.445 669.712 142.93 666.227 142.93 661.929V654.89C142.93 650.592 139.445 647.107 135.147 647.107Z" fill="#8193CA"/>
    <path d="M164.7 715.955C164.7 715.955 186.724 725.443 185.454 735.366C185.454 735.366 162.686 730.994 158.622 724.499C154.541 717.987 156.79 714.231 156.79 714.231L164.7 715.973V715.955Z" fill="#343B97"/>
    <path d="M159.312 705.106L158.187 714.776C158.024 716.227 158.822 717.678 160.219 718.168C160.908 718.422 161.815 718.585 163.013 718.585C164.7 718.585 166.187 717.497 166.623 715.864L168.782 708.045L159.312 705.088V705.106Z" fill="url(#paint0_linear_1_258)"/>
    <path d="M111.2 630.979C111.2 630.979 151.71 629.111 171.866 640.867C192.021 652.622 170.85 709.043 170.85 709.043C170.85 709.043 165.589 710.168 158.006 706.122C158.006 706.122 168.818 664.814 150.023 657.629C128.888 649.556 107.046 651.516 107.046 651.516L111.091 632.249L111.2 630.979Z" fill="#343B97"/>
    <path d="M181.046 731.012C176.438 729.996 162.777 724.336 160.709 724.427C158.641 724.499 155.702 727.62 155.702 727.62C155.702 727.62 155.194 729.325 156.681 731.756C160.201 734.495 167.784 739.539 176.601 740.083C183.077 740.482 186.978 737.906 189.209 735.403C187.25 733.498 184.13 731.684 181.046 731.012Z" fill="#343B97"/>
    <path d="M176.583 740.065C167.766 739.521 160.183 734.477 156.663 731.738C157.661 733.389 159.584 735.366 163.176 737.398C172.084 742.423 186.796 741.698 189.717 740.573C192.057 739.666 191.332 737.489 189.191 735.403C186.96 737.906 183.059 740.482 176.583 740.083V740.065Z" fill="url(#paint1_linear_1_258)"/>
    <path d="M150.858 722.54C151.166 723.683 154.377 727.112 156.246 729.017C157.135 729.924 158.423 730.323 159.657 730.051C160.437 729.888 161.326 729.615 162.106 729.198C163.267 728.563 163.666 727.112 163.031 725.951L158.314 717.37L150.858 722.54Z" fill="url(#paint2_linear_1_258)"/>
    <path d="M71.0528 627.587C71.0528 627.587 67.5152 652.677 77.7471 657.793C87.979 662.927 110.402 666.283 118.112 679.291C125.841 692.298 139.701 717.842 152.327 725.171C152.327 725.171 159.53 722.83 161.652 719.275C161.652 719.275 146.667 679.889 140.426 670.31C135.02 662.02 127.092 650.083 115.844 644.912C112.633 643.425 112.379 640.014 112.942 636.513L113.976 630.145L71.071 627.569L71.0528 627.587Z" fill="#343B97"/>
    <path d="M165.807 599.141C151.475 603.241 145.052 562.894 145.107 561.914L123.137 587.603C123.137 587.603 136.236 610.643 156.01 613.092C161.017 613.709 165.262 612.838 168.836 611.205C166.206 606.905 165.607 602.642 165.807 599.123V599.141Z" fill="#F79457"/>
    <path d="M192.348 585.952C186.107 583.376 180.81 588.51 180.81 588.51C174.623 594.841 169.707 598.052 165.806 599.159C165.607 602.678 166.206 606.924 168.836 611.241C176.564 607.704 181.064 600.556 182.914 596.982C183.585 595.694 185.145 595.15 186.452 595.785C187.776 596.42 189.137 597.399 189.227 598.724C189.391 601.336 192.511 601.499 192.529 600.52C192.529 599.558 190.116 594.388 190.116 594.388C190.116 594.388 197.3 598.996 200.094 600.755C202.888 602.515 205.265 599.613 205.265 599.613C205.265 599.613 198.607 588.528 192.366 585.952H192.348Z" fill="url(#paint3_linear_1_258)"/>
    <path d="M76.5679 545.315C76.5679 545.315 95.8343 532.18 142.349 555.946C142.349 555.946 147.139 562.023 144.889 568.862C142.64 575.702 115.028 612.765 113.958 630.163C113.958 630.163 95.0723 641.284 70.563 630.254C70.563 630.254 62.3448 584.319 76.5679 545.315Z" fill="#F79457"/>
    <path d="M121.396 524.742L109.078 543.446C108.316 544.934 108.479 546.712 109.513 548.018C111.617 550.648 115.99 554.168 123.446 551.9C125.659 551.229 127.364 549.415 127.909 547.165L131.845 530.511L121.396 524.76V524.742Z" fill="url(#paint4_linear_1_258)"/>
    <path d="M62.3086 597.399C61.0024 588.328 84.9675 570.767 84.9675 570.767L76.5679 545.333C76.5679 545.333 30.851 577.951 40.4661 604.601C41.8448 608.429 43.8948 611.205 46.3984 613.183C51.2422 603.259 57.8094 599.123 62.2904 597.417L62.3086 597.399Z" fill="#F79457"/>
    <path d="M95.7436 599.921C95.7436 599.921 68.64 607.486 63.0161 599.232C62.6351 598.669 62.4174 598.052 62.3086 597.399C57.8094 599.105 51.2422 603.223 46.4165 613.164C59.2789 623.287 84.0967 611.931 90.8453 608.538C91.952 607.976 93.2219 607.867 94.4192 608.248C96.8139 608.992 100.968 610.153 103.29 610.026C106.683 609.844 110.311 622.072 116.08 618.988C116.08 618.988 113.468 598.071 95.7617 599.939L95.7436 599.921Z" fill="url(#paint5_linear_1_258)"/>
    <path d="M149.533 512.914C149.533 513.24 143.946 532.652 141.079 542.539C140.209 545.551 136.889 547.129 134.004 545.932L131.791 545.006C128.761 543.736 123.446 539.818 123.156 536.534L124.171 513.095C124.171 513.095 149.171 505.766 149.57 512.932L149.533 512.914Z" fill="url(#paint6_linear_1_258)"/>
    <path d="M124.317 506.564C123.736 504.369 123.7 501.085 127.854 499.652C132.081 498.183 134.911 500.614 136.399 502.519C136.998 503.281 138.05 503.48 138.921 503.045C139.41 502.791 140.027 502.754 140.717 503.262C141.642 503.952 142.984 503.661 143.583 502.664C144.726 500.759 146.903 498.781 150.803 499.816C157.752 501.648 157.86 509.521 155.611 513.948C153.343 518.356 145.923 515.962 142.331 513.313C139.592 511.299 135.691 512.823 133.968 513.658C133.424 513.93 133.043 514.42 132.898 515.018L130.956 523.726C128.798 523.944 126.675 524.325 124.552 524.742C124.589 524.089 124.607 523.545 124.589 523.127C124.516 520.243 121.142 518.211 119.672 517.467C119.183 517.213 118.838 516.796 118.675 516.27C118.13 514.438 117.513 510.265 122.811 509.031C123.917 508.777 124.589 507.653 124.298 506.564H124.317Z" fill="#343B97"/>
    <path d="M123.5 528.243C123.5 528.243 127.11 520.388 124.298 518.139C121.487 515.889 116.987 516.542 117.441 522.493C118.003 529.912 123.482 528.243 123.482 528.243H123.5Z" fill="url(#paint7_linear_1_258)"/>
    <path d="M130.34 617.174C130.34 617.174 130.43 617.174 130.485 617.174L193.799 617.101C195.359 617.101 196.629 615.831 196.629 614.271C196.629 612.711 195.359 611.405 193.799 611.441L130.485 611.513C128.925 611.513 127.655 612.783 127.655 614.344C127.655 615.868 128.852 617.101 130.34 617.174Z" fill="#343B97"/>
    <path d="M250.727 559.683H197.99C194.107 559.683 190.552 561.932 188.901 565.452L164.518 617.137H230.046C232.55 617.137 234.799 615.613 235.724 613.273L254.628 565.434C255.716 562.676 253.685 559.683 250.709 559.683H250.727Z" fill="#343B97"/>
    <path d="M242.183 752.982C242.527 752.982 242.89 752.909 243.235 752.764C244.577 752.202 245.212 750.678 244.632 749.372L188.828 623.777C188.248 622.471 186.688 621.872 185.327 622.435C183.984 622.997 183.349 624.521 183.93 625.827L239.734 751.422C240.169 752.401 241.149 752.982 242.183 752.982Z" fill="#525DAA"/>
    <path d="M179.304 752.982C180.338 752.982 181.318 752.401 181.753 751.422L237.557 625.827C238.137 624.521 237.52 622.997 236.16 622.435C234.817 621.872 233.239 622.471 232.658 623.777L176.855 749.372C176.274 750.678 176.891 752.202 178.252 752.764C178.596 752.909 178.959 752.982 179.304 752.982Z" fill="#525DAA"/>
    <path d="M69.4382 752.982C69.7829 752.982 70.1457 752.909 70.4904 752.764C71.8329 752.202 72.4679 750.678 71.8873 749.372L16.0837 623.777C15.5032 622.471 13.943 621.872 12.5824 622.435C11.2399 622.997 10.6049 624.521 11.1855 625.827L66.9891 751.422C67.4245 752.401 68.4041 752.982 69.4382 752.982Z" fill="#525DAA"/>
    <path d="M6.5775 752.982C7.61157 752.982 8.59122 752.401 9.02662 751.422L64.8302 625.827C65.4108 624.521 64.794 622.997 63.4333 622.435C62.0909 621.872 60.5125 622.471 59.932 623.777L4.14652 749.39C3.56599 750.696 4.18281 752.22 5.54343 752.782C5.88812 752.927 6.25095 753 6.59564 753L6.5775 752.982Z" fill="#525DAA"/>
    <path d="M0.0465321 619.913C-0.0986008 619.097 0.100957 618.244 0.572639 617.591C1.04432 616.938 1.75184 616.575 2.51379 616.575H256.351C257.331 616.575 258.256 617.137 258.782 618.063C259.308 618.988 259.381 620.167 258.964 621.165L256.206 627.823C255.571 629.347 254.211 630.326 252.705 630.326H4.23725C2.84034 630.326 1.64299 629.22 1.37087 627.678L0.0283905 619.913H0.0465321Z" fill="#525DAA"/>
    <defs>
    <linearGradient id="paint0_linear_1_258" x1="157.626" y1="712.676" x2="169.335" y2="710.084" gradientUnits="userSpaceOnUse">
    <stop stop-color="#F5928F"/>
    <stop offset="1" stop-color="#F8B2B1"/>
    </linearGradient>
    <linearGradient id="paint1_linear_1_258" x1="174.043" y1="747.285" x2="173.39" y2="684.534" gradientUnits="userSpaceOnUse">
    <stop stop-color="#4C57A6"/>
    <stop offset="1" stop-color="#5560AB"/>
    </linearGradient>
    <linearGradient id="paint2_linear_1_258" x1="151.569" y1="725.351" x2="162.551" y2="722.92" gradientUnits="userSpaceOnUse">
    <stop stop-color="#F5928F"/>
    <stop offset="1" stop-color="#F8B2B1"/>
    </linearGradient>
    <linearGradient id="paint3_linear_1_258" x1="165.496" y1="601.067" x2="203.791" y2="592.591" gradientUnits="userSpaceOnUse">
    <stop stop-color="#F5928F"/>
    <stop offset="1" stop-color="#F8B2B1"/>
    </linearGradient>
    <linearGradient id="paint4_linear_1_258" x1="137.614" y1="513.023" x2="106.737" y2="565.597" gradientUnits="userSpaceOnUse">
    <stop stop-color="#F5928F"/>
    <stop offset="1" stop-color="#F8B2B1"/>
    </linearGradient>
    <linearGradient id="paint5_linear_1_258" x1="61.2926" y1="571.547" x2="71.4701" y2="593.571" gradientUnits="userSpaceOnUse">
    <stop stop-color="#F5928F"/>
    <stop offset="1" stop-color="#F8B2B1"/>
    </linearGradient>
    <linearGradient id="paint6_linear_1_258" x1="336.161" y1="1626.91" x2="326.633" y2="1574.13" gradientUnits="userSpaceOnUse">
    <stop stop-color="#F5928F"/>
    <stop offset="1" stop-color="#F8B2B1"/>
    </linearGradient>
    <linearGradient id="paint7_linear_1_258" x1="322.257" y1="1629.44" x2="312.728" y2="1576.66" gradientUnits="userSpaceOnUse">
    <stop stop-color="#F5928F"/>
    <stop offset="1" stop-color="#F8B2B1"/>
    </linearGradient>
    </defs>
    </svg>
    