<svg width="790" height="704" viewBox="0 0 790 704" fill="none" xmlns="http://www.w3.org/2000/svg">
    <g opacity="0.3">
    <path d="M149.794 54.3583L147.82 58.7729L283.042 119.24L285.016 114.825L149.794 54.3583Z" fill="#BCBEC0"/>
    <path d="M238.827 -56.1039L234.165 -54.8192L281.705 117.689L286.367 116.404L238.827 -56.1039Z" fill="#BCBEC0"/>
    <path d="M251.952 121.377L247.582 123.446L356.938 354.403L361.309 352.333L251.952 121.377Z" fill="#BCBEC0"/>
    <path d="M612.282 291.314L358.595 350.99L359.703 355.697L613.39 296.021L612.282 291.314Z" fill="#BCBEC0"/>
    <path d="M458.377 82.4621L454.499 85.352L610.88 295.173L614.757 292.283L458.377 82.4621Z" fill="#BCBEC0"/>
    <path d="M243.531 103.539L241.342 107.851L611.718 295.856L613.907 291.544L243.531 103.539Z" fill="#BCBEC0"/>
    <path d="M861.058 187.856L606.191 289.215L607.978 293.708L862.845 192.35L861.058 187.856Z" fill="#BCBEC0"/>
    <path d="M609.071 290.102L605.131 292.905L788.179 550.219L792.119 547.416L609.071 290.102Z" fill="#BCBEC0"/>
    <path d="M1024.2 431.683L615.751 286.06L614.127 290.615L1022.57 436.238L1024.2 431.683Z" fill="#BCBEC0"/>
    <path d="M555.768 390.679C622.956 417.135 698.868 384.116 725.324 316.928C751.78 249.741 718.761 173.828 651.573 147.372C584.386 120.916 508.473 153.936 482.017 221.123C455.561 288.31 488.581 364.223 555.768 390.679Z" fill="#343B97"/>
    <path d="M435.013 125.532C466.491 137.927 502.056 122.457 514.451 90.9794C526.846 59.5018 511.376 23.9362 479.898 11.5415C448.421 -0.853268 412.855 14.6165 400.46 46.0941C388.065 77.5718 403.535 113.137 435.013 125.532Z" fill="#83C2EB"/>
    <path d="M217.588 90.8809C231.672 55.1146 272.088 37.5351 307.854 51.6186C343.62 65.702 364.546 107.435 350.462 143.202C336.379 178.968 292.617 195.23 256.851 181.146C221.084 167.063 203.505 126.647 217.588 90.8809Z" fill="#587BC9"/>
    <path d="M347.626 407.869C375.854 418.984 407.748 405.111 418.863 376.883C429.978 348.656 416.106 316.762 387.878 305.647C359.65 294.531 327.756 308.404 316.641 336.632C305.526 364.86 319.398 396.754 347.626 407.869Z" fill="#343B97"/>
    <path d="M836.508 250.377C867.72 262.667 902.985 247.328 915.276 216.115C927.566 184.903 912.227 149.638 881.014 137.347C849.802 125.057 814.537 140.397 802.246 171.609C789.956 202.821 805.296 238.086 836.508 250.377Z" fill="#525DAA"/>
    <path d="M768.472 603.8C802.483 617.192 840.91 600.478 854.302 566.467C867.694 532.457 850.98 494.029 816.969 480.637C782.959 467.245 744.532 483.96 731.139 517.97C717.747 551.981 734.462 590.408 768.472 603.8Z" fill="#525DAA"/>
    <path d="M182.145 79.7139C194.93 61.3006 190.367 36.0098 171.954 23.2252C153.54 10.4406 128.249 15.0036 115.465 33.4169C102.68 51.8302 107.243 77.1211 125.657 89.9057C144.07 102.69 169.361 98.1272 182.145 79.7139Z" fill="#83C2EB"/>
    <path d="M706.665 266.481C706.332 253.168 703.455 240.197 698.121 227.935C692.788 215.674 685.261 204.725 675.749 195.405C665.901 185.752 654.344 178.27 641.413 173.178C628.481 168.086 614.925 165.68 601.14 166.026C587.827 166.359 574.856 169.236 562.594 174.57C550.333 179.903 539.384 187.43 530.064 196.942C520.411 206.79 512.929 218.347 507.837 231.278C502.745 244.21 500.339 257.766 500.685 271.551C501.018 284.864 503.895 297.835 509.228 310.097C514.562 322.358 522.089 333.307 531.601 342.627C541.449 352.28 553.006 359.762 565.937 364.854C578.869 369.946 592.425 372.352 606.21 372.006C619.523 371.673 632.494 368.796 644.756 363.463C657.017 358.129 667.966 350.602 677.286 341.09C686.939 331.242 694.421 319.685 699.513 306.754C704.605 293.822 707.011 280.266 706.665 266.481ZM558.245 247.718C561.202 240.209 564.95 233.2 569.447 226.742L608.656 242.181L590.707 287.764L551.806 272.446C552.967 263.941 555.114 255.669 558.249 247.708L558.245 247.718ZM653.706 212.523C657.44 223.344 659.478 234.33 659.763 245.17C659.82 247.169 659.801 249.161 659.737 251.157L622.096 236.335L641.457 187.166C644.7 192.185 649.727 200.994 653.709 212.513L653.706 212.523ZM631.439 184.32L612.453 232.538L576.09 218.219C577.349 216.772 578.648 215.362 579.988 213.99C587.547 206.272 596.472 199.625 606.517 194.252C616.407 188.963 625.469 185.945 631.439 184.32ZM586.906 297.417L566.526 349.172C563.508 343.386 559.399 334.416 556.129 323.289C552.69 311.574 550.898 299.852 550.797 288.463C550.776 286.711 550.807 284.968 550.87 283.228L586.906 297.417ZM575.746 354.046L596.549 301.214L633.854 315.903C632.759 317.16 631.636 318.406 630.487 319.631C622.687 327.876 613.434 335.215 602.987 341.441C591.972 348.009 581.911 351.954 575.74 354.033L575.746 354.046ZM600.346 291.571L618.295 245.988L658.782 261.93C657.669 269.721 655.632 277.403 652.676 284.912C649.545 292.864 645.471 300.388 640.522 307.402L600.343 291.58L600.346 291.571ZM668.666 265.822L696.02 276.593C695.271 285.516 693.22 294.392 689.847 302.958C687.068 310.016 683.496 316.605 679.23 322.643L650.425 311.301C655.205 304.21 659.188 296.661 662.319 288.71C665.264 281.23 667.378 273.577 668.666 265.822ZM688.598 232.07C693.278 242.83 695.834 254.165 696.269 265.552L669.906 255.172C670.137 251.764 670.209 248.339 670.117 244.905C669.798 232.996 667.571 220.969 663.487 209.144C661.376 203.027 658.994 197.625 656.69 193.042C670.629 202.739 681.652 216.119 688.588 232.066L688.598 232.07ZM566.704 184.073C583.253 176.874 601.121 174.703 618.512 177.553C613.556 179.366 607.923 181.768 601.976 184.913C590.927 190.779 581.097 198.058 572.744 206.552C570.336 209.002 568.063 211.56 565.899 214.206L538.257 203.322C546.34 195.288 555.928 188.736 566.698 184.059L566.704 184.073ZM530.918 211.582L559.55 222.856C555.205 229.408 551.537 236.437 548.588 243.927C545.457 251.878 543.214 260.112 541.886 268.562L511.802 256.716C512.798 249.391 514.678 242.135 517.457 235.078C520.83 226.511 525.372 218.616 530.918 211.582ZM518.706 305.966C513.344 293.638 510.769 280.575 510.985 267.533L540.694 279.232C540.49 282.316 540.396 285.433 540.418 288.563C540.531 300.912 542.466 313.567 546.172 326.21C548.598 334.461 551.444 341.59 554.046 347.279C538.477 337.461 526.204 323.222 518.697 305.963L518.706 305.966ZM640.6 353.964C623.903 361.226 605.853 363.381 588.316 360.395C594.012 358.029 600.777 354.808 607.979 350.536C619.31 343.814 629.354 335.876 637.856 326.919C640.016 324.649 642.059 322.31 644.016 319.905L672.456 331.104C663.718 340.801 652.929 348.601 640.604 353.954L640.6 353.964Z" fill="white"/>
    <path d="M299.481 142.317C296.023 139.057 291.124 138.271 286.967 139.888L270.654 119.694C273.712 116.157 275.074 111.684 274.778 107.303L299.79 101.993C300.534 103.685 301.621 105.268 303.044 106.617C308.736 111.99 317.745 111.729 323.118 106.037C328.491 100.346 328.229 91.3362 322.538 85.9634C316.846 80.5906 307.837 80.8522 302.464 86.5436C300.161 88.9795 298.896 92.0239 298.648 95.1356L272.911 100.593C272.044 98.9305 270.9 97.3805 269.461 96.0144C262.585 89.5312 251.715 89.8373 245.232 96.7129C238.749 103.589 239.055 114.459 245.93 120.942C251.176 125.895 258.751 126.879 264.932 124.015L281.396 144.391C278.253 149.128 278.883 155.595 283.157 159.633C287.932 164.145 295.484 163.92 299.996 159.145C304.508 154.369 304.283 146.818 299.508 142.306L299.481 142.317Z" fill="white"/>
    <path d="M792.357 574.892C796.514 568.906 795.03 560.684 789.044 556.527C783.058 552.371 774.836 553.854 770.679 559.841C766.523 565.827 768.007 574.049 773.993 578.205C779.979 582.361 788.201 580.878 792.357 574.892Z" fill="white"/>
    <path opacity="0.06" d="M793.231 564.331C793.099 566.077 792.619 567.832 791.818 569.471C790.609 571.949 788.621 574.12 786.147 575.356C783.548 576.654 780.726 577.053 778.02 576.676C776.663 576.485 775.348 576.101 774.125 575.542C774.076 575.523 774.028 575.504 773.99 575.489C774.418 576.179 774.933 576.815 775.541 577.388C779.633 581.209 786.392 580.628 790.633 576.09C793.802 572.696 794.672 568.063 793.218 564.336L793.231 564.331Z" fill="black"/>
    <path d="M807.402 569.011C801.05 556.404 791.505 549.536 779.016 548.594C769.461 547.874 761.838 550.903 761.761 550.928L757.966 542.038C758.36 541.882 767.798 538.135 779.623 539.016C790.766 539.85 806.139 545.004 816.114 564.823L807.4 568.988L807.402 569.011Z" fill="white"/>
    <path d="M821.514 563.351C816.426 553.174 809.797 545.5 801.813 540.535C795.489 536.601 788.252 534.307 780.295 533.728C766.501 532.716 755.416 537.147 755.3 537.19L751.477 528.311C752.019 528.091 764.815 522.979 780.884 524.165C790.467 524.873 799.232 527.658 806.937 532.458C816.488 538.406 824.325 547.412 830.236 559.223L821.506 563.37L821.514 563.351Z" fill="white"/>
    <path d="M835.573 557.626C828.964 544.43 820.362 534.435 809.99 527.919C801.746 522.74 792.3 519.709 781.928 518.89C763.872 517.477 749.06 523.338 748.912 523.403L745.103 514.518C745.779 514.24 761.896 507.803 782.186 509.296C794.243 510.179 805.266 513.687 814.95 519.721C826.972 527.209 836.86 538.565 844.322 553.486L835.592 557.634L835.573 557.626Z" fill="white"/>
    <path d="M402.728 335.648C400.316 332.411 396.295 330.75 392.302 331.188C391.411 331.281 390.517 331.406 389.621 331.509C384.981 332.069 380.344 332.62 375.704 333.18C372.229 333.6 368.762 334.001 365.293 334.434C362.177 334.817 359.232 336.401 357.368 338.965C355.552 341.459 354.965 344.36 355.275 347.381C353.398 347.608 351.521 347.834 349.643 348.061C346.169 348.481 342.702 348.882 339.233 349.315C336.117 349.698 333.172 351.282 331.307 353.846C329.435 356.429 328.862 359.435 329.246 362.551C329.515 364.8 329.784 367.05 330.053 369.299C330.294 371.338 330.41 373.471 331.124 375.407C332.536 379.183 336.083 381.99 340.064 382.57C341.597 382.795 343.092 382.607 344.607 382.426C352.92 381.424 361.243 380.425 369.552 379.433C369.785 379.403 370.006 379.378 370.24 379.348C374.307 378.806 377.955 376.112 379.439 372.232C380.181 370.292 380.23 368.39 380.07 366.428C380.442 366.385 380.827 366.337 381.199 366.295C386.001 365.72 390.806 365.136 395.618 364.565C395.851 364.535 396.072 364.511 396.306 364.481C400.373 363.939 404.021 361.244 405.505 357.364C406.438 354.911 406.281 352.517 405.983 350.001C405.7 347.59 405.403 345.186 405.119 342.775C404.808 340.21 404.338 337.793 402.748 335.656L402.728 335.648ZM393.655 336.185C393.59 336.181 393.655 336.185 393.655 336.185V336.185ZM367.725 351.072C367.725 351.072 367.768 351.078 367.791 351.076C368.09 351.105 368.39 351.134 368.691 351.186C368.837 351.21 368.989 351.248 369.135 351.272C369.187 351.281 369.229 351.287 369.262 351.289C369.291 351.3 369.329 351.315 369.367 351.33C369.714 351.467 370.064 351.593 370.398 351.758C370.437 351.774 370.729 351.933 370.783 351.966C370.852 352.015 370.916 352.051 370.985 352.101C371.38 352.367 371.746 352.678 372.095 353.004C372.095 353.004 372.105 353.008 372.115 353.012C372.13 353.029 372.151 353.06 372.182 353.094C372.314 353.268 372.472 353.43 372.6 353.614C372.704 353.744 373.157 354.511 373.027 354.248C373.184 354.555 373.334 354.88 373.451 355.204C373.505 355.347 373.556 355.5 373.606 355.654C373.591 355.636 373.685 356.018 373.707 356.104C373.988 357.703 374.106 359.349 374.305 360.959C374.339 361.295 374.387 361.625 374.421 361.96C374.247 361.98 374.072 362.001 373.898 362.021C373.806 362.029 373.71 362.047 373.608 362.051C372.139 362.228 370.671 362.405 369.202 362.581C368.968 362.611 368.747 362.636 368.513 362.666C368.247 362.694 367.974 362.709 367.702 362.724C367.83 362.708 367.034 362.672 366.875 362.653C366.654 362.622 366.431 362.568 366.2 362.532C366.171 362.521 366.139 362.519 366.106 362.517C366.097 362.514 366.087 362.51 366.077 362.506C365.614 362.357 365.183 362.154 364.743 361.947C364.704 361.932 364.631 361.892 364.577 361.86C364.444 361.774 364.306 361.675 364.173 361.59C363.87 361.371 363.599 361.13 363.317 360.886C363.282 360.861 363.261 360.831 363.232 360.819C363.211 360.789 363.19 360.758 363.153 360.711C363.064 360.598 362.966 360.481 362.867 360.365C362.726 360.187 362.595 360.013 362.48 359.824C362.426 359.736 362.372 359.648 362.318 359.56C362.318 359.56 362.302 359.543 362.297 359.529C362.11 359.156 361.938 358.777 361.805 358.381C361.78 358.304 361.754 358.227 361.729 358.151C361.733 358.141 361.633 357.746 361.619 357.697C361.579 357.459 361.547 357.202 361.521 356.958C361.314 355.256 361.111 353.543 360.908 351.831C362.39 351.648 363.869 351.475 365.351 351.292C365.773 351.236 366.191 351.19 366.613 351.134C366.672 351.124 366.741 351.118 366.801 351.108C367.1 351.082 367.39 351.051 367.691 351.048L367.725 351.072ZM367.585 351.062C367.52 351.058 367.585 351.062 367.585 351.062V351.062ZM375.024 367.029C375.038 367.134 375.049 367.249 375.063 367.355C375.093 367.589 375.1 367.825 375.116 368.064C375.115 368.097 375.117 368.12 375.128 368.147C375.124 368.156 375.117 368.176 375.123 368.189C375.093 368.688 375.005 369.164 374.923 369.654C374.912 369.683 374.901 369.767 374.882 369.816C374.818 369.979 374.776 370.14 374.712 370.304C374.602 370.583 374.473 370.854 374.335 371.121C374.331 371.131 374.137 371.454 374.108 371.499C374.026 371.622 373.935 371.741 373.847 371.851C373.71 372.03 373.567 372.196 373.424 372.362C373.365 372.428 373.306 372.493 373.237 372.555C373.229 372.574 373.203 372.586 373.185 372.601C372.87 372.866 372.559 373.121 372.222 373.355C372.161 373.397 372.09 373.436 372.029 373.479C371.989 373.496 371.679 373.663 371.626 373.686C371.283 373.851 370.923 373.976 370.563 374.101C370.513 374.114 370.473 374.132 370.446 374.143C370.41 374.151 370.377 374.15 370.327 374.163C370.089 374.203 369.861 374.246 369.627 374.276C362.27 375.166 354.906 376.042 347.548 376.932C346.079 377.109 344.61 377.286 343.142 377.462C342.908 377.492 342.687 377.517 342.453 377.547C342.187 377.575 341.914 377.59 341.642 377.605C341.77 377.589 340.974 377.553 340.814 377.534C340.594 377.503 340.371 377.448 340.144 377.404C340.115 377.392 340.082 377.391 340.05 377.389C340.04 377.385 340.031 377.381 340.021 377.377C339.558 377.228 339.127 377.025 338.686 376.819C338.648 376.803 338.575 376.764 338.521 376.731C338.388 376.646 338.249 376.547 338.116 376.461C337.814 376.242 337.542 376.002 337.261 375.757C337.226 375.733 337.201 375.712 337.176 375.691C337.155 375.66 337.133 375.63 337.097 375.582C337.008 375.469 336.909 375.353 336.811 375.236C336.67 375.058 336.538 374.884 336.424 374.695C336.37 374.607 336.316 374.519 336.261 374.431C336.261 374.431 336.246 374.414 336.24 374.401C336.054 374.027 335.881 373.648 335.749 373.252C335.723 373.175 335.698 373.099 335.672 373.022C335.676 373.012 335.576 372.618 335.563 372.568C335.523 372.33 335.491 372.073 335.465 371.83C335.224 369.847 334.986 367.855 334.749 365.862C334.557 364.265 334.318 362.672 334.181 361.074C334.166 360.913 334.162 360.755 334.153 360.608C334.149 360.562 334.145 360.516 334.147 360.483C334.158 360.454 334.154 360.408 334.159 360.366C334.2 359.982 334.236 359.608 334.305 359.235C334.324 359.187 334.418 358.78 334.41 358.799C334.452 358.693 334.493 358.587 334.525 358.478C334.593 358.305 334.662 358.132 334.739 357.962C334.766 357.895 335.017 357.427 335.028 357.399C335.195 357.142 335.373 356.89 335.569 356.645C335.681 356.501 335.813 356.364 335.931 356.233C335.969 356.192 336.038 356.131 336.093 356.075C336.348 355.853 336.598 355.64 336.873 355.449C336.999 355.354 337.135 355.263 337.276 355.186C337.242 355.216 337.68 354.978 337.761 354.943C338.099 354.788 338.46 354.663 338.816 354.548C338.866 354.534 338.925 354.524 338.952 354.513C339.19 354.473 339.418 354.429 339.652 354.399C339.711 354.39 339.757 354.385 339.816 354.376C340.225 354.325 340.62 354.281 341.028 354.231C342.741 354.028 344.444 353.821 346.156 353.618C349.387 353.224 352.624 352.844 355.855 352.451C355.863 352.487 355.861 352.52 355.869 352.556L355.85 352.549L355.884 352.884L355.904 352.892C355.972 353.396 356.026 353.906 356.09 354.42C356.332 356.459 356.447 358.592 357.161 360.528C358.573 364.304 362.121 367.112 366.102 367.691C367.634 367.917 369.13 367.728 370.645 367.547C371.925 367.396 373.206 367.246 374.482 367.081C374.656 367.061 374.831 367.041 375.005 367.021L375.024 367.029ZM400.361 346.088C400.606 348.117 400.855 350.136 401.09 352.161C401.104 352.267 401.115 352.382 401.129 352.487C401.159 352.721 401.166 352.957 401.182 353.197C401.181 353.229 401.183 353.252 401.194 353.279C401.19 353.289 401.183 353.308 401.189 353.321C401.159 353.82 401.071 354.297 400.989 354.787C400.978 354.815 400.967 354.9 400.948 354.948C400.884 355.111 400.842 355.273 400.778 355.436C400.668 355.715 400.539 355.986 400.401 356.254C400.397 356.263 400.203 356.587 400.174 356.631C400.092 356.754 400.001 356.874 399.913 356.984C399.776 357.163 399.643 357.332 399.49 357.494C399.431 357.56 399.372 357.626 399.303 357.687C399.295 357.707 399.269 357.718 399.251 357.734C398.936 357.998 398.625 358.253 398.288 358.487C398.227 358.53 398.156 358.569 398.095 358.611C398.055 358.629 397.745 358.795 397.692 358.819C397.349 358.983 396.989 359.108 396.629 359.233C396.579 359.247 396.539 359.264 396.512 359.276C396.479 359.274 396.443 359.282 396.393 359.296C396.155 359.335 395.927 359.379 395.693 359.409C390.658 360.014 385.622 360.618 380.587 361.223C380.214 361.265 379.852 361.311 379.48 361.354C379.333 360.119 379.187 358.884 379.04 357.649C378.738 355.087 378.259 352.666 376.668 350.529C374.256 347.292 370.235 345.631 366.242 346.068C365.35 346.162 364.457 346.287 363.561 346.39C362.487 346.522 361.404 346.651 360.334 346.774C360.318 346.59 360.292 346.402 360.279 346.208C360.265 346.047 360.26 345.89 360.252 345.742C360.248 345.696 360.243 345.65 360.245 345.617C360.257 345.588 360.253 345.542 360.258 345.5C360.298 345.116 360.335 344.742 360.404 344.369C360.422 344.321 360.516 343.914 360.509 343.933C360.55 343.827 360.592 343.721 360.624 343.612C360.692 343.439 360.76 343.266 360.838 343.096C360.864 343.029 361.115 342.562 361.127 342.533C361.294 342.277 361.471 342.024 361.668 341.78C361.78 341.635 361.912 341.498 362.03 341.367C362.068 341.326 362.137 341.265 362.192 341.209C362.446 340.987 362.696 340.774 362.972 340.583C363.098 340.488 363.234 340.397 363.375 340.32C363.341 340.351 363.779 340.112 363.859 340.077C364.198 339.922 364.558 339.797 364.914 339.682C364.964 339.668 365.024 339.658 365.05 339.647C365.288 339.607 365.516 339.564 365.75 339.534C365.81 339.524 365.856 339.52 365.915 339.51C366.324 339.46 366.719 339.415 367.127 339.365C368.839 339.162 370.542 338.955 372.255 338.752C376.928 338.194 381.605 337.625 386.278 337.067C388.004 336.858 389.739 336.653 391.465 336.444C391.887 336.388 392.305 336.341 392.727 336.285C392.786 336.276 392.855 336.269 392.915 336.26C393.214 336.233 393.504 336.203 393.805 336.199C393.824 336.207 393.847 336.205 393.87 336.203C394.17 336.232 394.469 336.261 394.771 336.313C394.917 336.337 395.068 336.375 395.214 336.399C395.266 336.408 395.308 336.414 395.341 336.415C395.37 336.427 395.408 336.442 395.447 336.457C395.793 336.593 396.143 336.72 396.481 336.875C396.52 336.891 396.812 337.05 396.866 337.083C396.936 337.132 396.999 337.168 397.069 337.218C397.463 337.484 397.83 337.795 398.179 338.121C398.179 338.121 398.188 338.125 398.198 338.129C398.213 338.146 398.235 338.177 398.265 338.211C398.397 338.385 398.555 338.547 398.683 338.731C398.787 338.861 399.24 339.628 399.11 339.365C399.267 339.672 399.417 339.997 399.534 340.321C399.588 340.464 399.639 340.617 399.69 340.771C399.674 340.753 399.768 341.135 399.79 341.221C400.071 342.82 400.189 344.466 400.388 346.076L400.361 346.088Z" fill="white"/>
    <path d="M487.815 41.0452C486.902 37.6653 484.998 34.7167 482.289 32.5169C480.464 31.032 478.358 30.2029 476.32 29.4003L470.397 27.0682C467.647 25.9854 465.02 25.5506 462.365 25.7491C458.992 25.9975 455.548 27.4955 452.931 29.8525C451.037 31.5609 449.579 33.6852 448.606 36.1562L436.271 67.4805L440.983 69.3356L453.378 37.8574C453.862 36.6267 454.326 35.8433 455.226 34.7428C455.92 33.8832 457.242 32.7824 458.223 32.236C459.535 31.4978 460.639 31.1215 462.157 30.8754C463.543 30.655 464.81 30.7095 466.399 31.0464C466.47 31.0633 466.673 31.1101 467.194 31.2819C467.41 31.3556 467.644 31.4369 467.923 31.5466L476.22 34.8139C477.48 35.3098 478.273 35.7776 479.373 36.6773C480.233 37.3712 481.334 38.6931 481.88 39.6745C482.618 40.9868 482.995 42.09 483.241 43.6084C483.461 44.9946 483.407 46.2613 483.07 47.85C483.053 47.9211 483.006 48.1247 482.834 48.6457C482.761 48.861 482.683 49.0859 482.573 49.3647L470.175 80.8525L474.886 82.7076L487.288 51.2102C488.564 47.9701 488.745 44.4653 487.83 41.0624L487.815 41.0452Z" fill="white"/>
    <path d="M435.525 53.5826L422.077 87.7336C420.26 92.3486 422.524 97.571 427.148 99.392L458.588 111.772C463.203 113.589 468.426 111.325 470.247 106.701L483.694 72.5498L435.525 53.5826ZM452.598 85.5812L449.362 93.8017C449.119 94.417 448.215 94.6272 447.34 94.2827L447.311 94.2714C446.436 93.9268 445.918 93.1563 446.16 92.541L449.397 84.3205C446.956 82.5376 445.929 79.2792 447.088 76.3372C448.466 72.8375 452.415 71.1276 455.905 72.5019C459.395 73.8761 461.115 77.8293 459.74 81.3194C458.582 84.2614 455.6 85.9411 452.608 85.585L452.598 85.5812Z" fill="white"/>
    </g>
    </svg>
    